<svg xmlns="http://www.w3.org/2000/svg" xmlns:xlink="http://www.w3.org/1999/xlink" width="500" zoomAndPan="magnify" viewBox="0 0 375 374.999991" height="500" preserveAspectRatio="xMidYMid meet" version="1.0"><defs><g/><clipPath id="89e2d71edd"><path d="M 50.410156 241.527344 L 333.59375 241.527344 L 333.59375 264.707031 L 50.410156 264.707031 Z M 50.410156 241.527344 " clip-rule="nonzero"/></clipPath><clipPath id="b4e6ceafbb"><path d="M 324.601562 263.175781 C 57.148438 264.148438 56.023438 263.550781 54.523438 262.574219 C 53.476562 261.898438 52.875 261.300781 52.199219 260.175781 C 51.375 258.601562 50.476562 255.523438 50.476562 253.726562 C 50.398438 252.449219 50.773438 251.476562 51.148438 250.425781 C 51.601562 249.449219 52.050781 248.476562 52.949219 247.574219 C 54.148438 246.300781 56.550781 244.574219 58.648438 244.125 C 60.675781 243.675781 63.523438 244.273438 65.25 244.875 C 66.449219 245.324219 67.199219 245.773438 68.023438 246.75 C 69.226562 248.101562 70.726562 250.875 71.101562 252.601562 C 71.476562 253.875 71.324219 254.925781 71.101562 255.976562 C 70.949219 257.101562 70.726562 258.148438 70.050781 259.199219 C 69.074219 260.699219 66.75 262.875 65.25 263.773438 C 64.125 264.375 63.226562 264.601562 61.949219 264.675781 C 60.226562 264.75 57.300781 264.300781 55.5 263.25 C 53.699219 262.125 51.976562 259.800781 51.148438 258.148438 C 50.625 257.023438 50.398438 256.125 50.476562 254.851562 C 50.476562 253.050781 51.375 250.050781 52.199219 248.476562 C 52.875 247.351562 53.476562 246.675781 54.523438 246 C 56.023438 245.023438 57.148438 244.5 60.824219 243.898438 C 84.300781 240.148438 301.875 241.199219 324.601562 245.476562 C 328.125 246.148438 329.023438 246.601562 330.449219 247.726562 C 331.648438 248.625 332.398438 249.898438 332.851562 251.175781 C 333.375 252.449219 333.675781 253.949219 333.375 255.375 C 333.074219 257.175781 331.949219 259.648438 330.449219 260.925781 C 329.023438 262.199219 324.601562 263.175781 324.601562 263.175781 " clip-rule="nonzero"/></clipPath><clipPath id="e42c6385f8"><path d="M 151.527344 248.355469 L 158.816406 248.355469 L 158.816406 255.851562 L 151.527344 255.851562 Z M 151.527344 248.355469 " clip-rule="nonzero"/></clipPath><clipPath id="a400e065c8"><path d="M 158.773438 250.949219 C 157.800781 254.925781 157.199219 255.226562 156.675781 255.449219 C 156.148438 255.675781 155.550781 255.898438 154.949219 255.824219 C 154.050781 255.601562 152.476562 254.851562 151.949219 254.023438 C 151.425781 253.125 151.5 251.398438 151.726562 250.5 C 151.949219 249.898438 152.398438 249.449219 152.851562 249.074219 C 153.300781 248.773438 153.824219 248.398438 154.5 248.398438 C 155.398438 248.324219 157.800781 249.375 157.800781 249.375 " clip-rule="nonzero"/></clipPath><clipPath id="cfb4e38468"><path d="M 47.507812 247.53125 L 79 247.53125 L 79 278.8125 L 47.507812 278.8125 Z M 47.507812 247.53125 " clip-rule="nonzero"/></clipPath><clipPath id="d9527fde10"><path d="M 61.125 253.800781 C 55.949219 258.226562 54.898438 259.351562 54.824219 260.773438 C 54.75 262.648438 56.398438 266.398438 57.898438 267.675781 C 59.023438 268.726562 60.226562 268.648438 62.101562 269.023438 C 65.476562 269.699219 73.949219 268.875 76.5 270.148438 C 77.699219 270.75 78.226562 271.574219 78.601562 272.550781 C 78.898438 273.601562 78.75 275.625 78.074219 276.601562 C 77.398438 277.574219 75.898438 278.25 74.476562 278.476562 C 72.375 278.851562 69.226562 278.550781 66.675781 277.425781 C 63.523438 276.148438 59.398438 272.476562 57.375 270.074219 C 56.023438 268.5 55.050781 267.074219 54.75 265.5 C 54.523438 264.148438 54.898438 262.875 55.574219 261.449219 C 56.550781 259.425781 58.800781 256.125 60.601562 255.074219 C 61.875 254.398438 63.300781 254.398438 64.5 254.550781 C 65.550781 254.699219 66.75 255.074219 67.5 255.675781 C 68.101562 256.125 68.476562 256.726562 68.699219 257.476562 C 69 258.300781 69.148438 259.726562 68.699219 260.625 C 68.25 261.75 66.976562 262.949219 65.625 263.476562 C 63.675781 264.148438 59.398438 263.851562 57.601562 262.800781 C 56.324219 262.050781 55.425781 260.550781 55.273438 259.351562 C 55.050781 258.375 55.574219 257.023438 56.023438 256.273438 C 56.398438 255.601562 56.699219 255.226562 57.601562 254.851562 C 60.375 253.800781 72.75 253.5 75.824219 254.550781 C 77.101562 254.925781 77.625 255.523438 78.148438 256.273438 C 78.675781 257.023438 79.050781 258.074219 78.976562 259.050781 C 78.75 260.25 77.699219 262.050781 76.726562 262.726562 C 75.976562 263.25 74.851562 263.476562 73.949219 263.324219 C 72.976562 263.25 71.925781 262.875 71.25 262.125 C 70.5 261.226562 69.824219 259.273438 69.898438 258.074219 C 69.976562 257.101562 70.5 256.125 71.25 255.523438 C 72.226562 254.773438 74.25 254.25 75.375 254.398438 C 76.351562 254.550781 77.25 255.226562 77.851562 255.898438 C 78.449219 256.574219 78.898438 257.699219 78.976562 258.601562 C 78.976562 259.5 78.675781 260.625 78.148438 261.375 C 77.625 262.125 77.101562 262.726562 75.824219 263.101562 C 72.824219 264.148438 61.800781 264.148438 58.648438 263.175781 C 57.300781 262.800781 56.550781 262.125 56.023438 261.375 C 55.574219 260.773438 55.273438 260.101562 55.273438 259.351562 C 55.199219 258.449219 55.425781 257.101562 56.023438 256.273438 C 56.550781 255.449219 57.523438 254.773438 58.648438 254.476562 C 60.375 253.949219 63.976562 254.25 65.550781 254.699219 C 66.449219 254.925781 66.976562 255.148438 67.5 255.675781 C 68.175781 256.351562 68.851562 257.550781 69 258.523438 C 69.074219 259.5 68.699219 260.851562 68.25 261.601562 C 67.875 262.273438 67.351562 262.726562 66.601562 263.101562 C 65.625 263.550781 62.773438 264.300781 62.550781 263.925781 C 62.398438 263.550781 65.101562 261.074219 65.175781 261.148438 C 65.324219 261.226562 62.925781 263.175781 63.148438 264.300781 C 63.449219 265.949219 68.25 268.875 70.574219 269.625 C 72.300781 270.226562 74.25 269.476562 75.523438 269.773438 C 76.273438 270 76.875 270.226562 77.398438 270.75 C 78.074219 271.574219 78.976562 273.375 78.824219 274.574219 C 78.675781 275.773438 77.925781 277.273438 76.5 277.949219 C 73.800781 279.375 65.625 278.699219 61.351562 277.800781 C 57.976562 277.050781 54.675781 275.476562 52.574219 273.898438 C 51 272.699219 50.101562 271.273438 49.273438 269.925781 C 48.449219 268.574219 47.925781 267.148438 47.625 265.800781 C 47.398438 264.449219 47.625 263.023438 47.773438 261.675781 C 47.851562 260.324219 48 259.050781 48.449219 257.773438 C 49.050781 256.351562 50.023438 255.074219 51.148438 253.648438 C 52.351562 252 54.226562 249.449219 55.574219 248.550781 C 56.476562 247.949219 57.300781 247.574219 58.199219 247.648438 C 59.175781 247.726562 60.675781 248.699219 61.273438 249.449219 C 61.726562 249.976562 61.800781 250.5 61.875 251.175781 C 61.875 251.925781 61.125 253.800781 61.125 253.800781 " clip-rule="nonzero"/></clipPath><clipPath id="1bfeaefa8e"><path d="M 46 243.304688 L 69.40625 243.304688 L 69.40625 273.585938 L 46 273.585938 Z M 46 243.304688 " clip-rule="nonzero"/></clipPath><clipPath id="817cee9747"><path d="M 65.550781 251.101562 C 58.574219 252.523438 57.074219 253.050781 56.175781 254.023438 C 55.273438 255 54.824219 256.5 54.449219 257.773438 C 54.148438 259.050781 53.773438 260.324219 54.226562 261.675781 C 54.898438 263.398438 58.574219 265.125 59.324219 266.925781 C 59.925781 268.199219 59.925781 269.925781 59.550781 270.976562 C 59.25 271.875 58.425781 272.550781 57.601562 273 C 56.851562 273.375 55.726562 273.601562 54.898438 273.449219 C 54 273.300781 53.023438 272.773438 52.425781 272.101562 C 51.824219 271.5 51.300781 270.523438 51.300781 269.550781 C 51.226562 268.425781 51.976562 266.550781 52.800781 265.800781 C 53.476562 265.125 54.523438 264.824219 55.425781 264.75 C 56.25 264.75 57.375 264.976562 58.050781 265.5 C 58.949219 266.25 60 267.976562 60 269.175781 C 60 270.375 58.949219 272.023438 58.050781 272.773438 C 57.300781 273.300781 56.25 273.523438 55.351562 273.449219 C 54.449219 273.449219 53.699219 273.148438 52.800781 272.398438 C 51 271.125 47.699219 267 46.726562 264.675781 C 46.050781 263.175781 46.050781 262.125 46.125 260.476562 C 46.273438 258 47.023438 254.101562 48.523438 251.699219 C 50.101562 249.226562 52.800781 247.050781 55.425781 245.699219 C 58.050781 244.273438 62.023438 243.523438 64.199219 243.449219 C 65.550781 243.375 66.523438 243.375 67.351562 243.898438 C 68.25 244.5 69.226562 245.773438 69.375 246.824219 C 69.523438 247.875 68.851562 249.449219 68.101562 250.125 C 67.5 250.726562 65.550781 251.101562 65.550781 251.101562 " clip-rule="nonzero"/></clipPath><clipPath id="dec13109e6"><path d="M 46.015625 254.636719 L 65.390625 254.636719 L 65.390625 276.945312 L 46.015625 276.945312 Z M 46.015625 254.636719 " clip-rule="nonzero"/></clipPath><clipPath id="ad704dd88a"><path d="M 55.199219 260.175781 C 55.351562 267.226562 59.625 270.300781 60.601562 270.074219 C 61.050781 269.925781 60.898438 268.648438 61.273438 268.5 C 61.800781 268.273438 63.148438 268.949219 63.824219 269.476562 C 64.425781 270 65.023438 270.976562 65.175781 271.800781 C 65.398438 272.625 65.25 273.675781 64.875 274.425781 C 64.574219 275.25 63.824219 276 63.074219 276.375 C 62.324219 276.824219 61.273438 277.050781 60.375 276.824219 C 59.324219 276.601562 57.824219 275.398438 57.226562 274.5 C 56.773438 273.675781 56.773438 272.625 56.925781 271.800781 C 57.148438 270.976562 57.601562 270 58.351562 269.476562 C 59.25 268.875 61.125 268.425781 62.175781 268.648438 C 63.074219 268.800781 63.898438 269.476562 64.425781 270.148438 C 64.949219 270.824219 65.324219 271.800781 65.324219 272.699219 C 65.324219 273.523438 65.023438 274.574219 64.425781 275.25 C 63.675781 276.074219 62.25 276.824219 60.824219 276.898438 C 59.101562 277.050781 56.25 275.851562 54.601562 275.023438 C 53.324219 274.425781 52.425781 273.824219 51.449219 272.925781 C 50.25 271.875 49.050781 270.449219 48.148438 269.101562 C 47.324219 267.898438 46.574219 266.550781 46.273438 265.199219 C 45.976562 264 45.976562 262.726562 46.273438 261.375 C 46.648438 259.648438 47.851562 257.101562 48.898438 255.976562 C 49.648438 255.226562 50.476562 254.773438 51.300781 254.699219 C 52.125 254.550781 53.175781 254.851562 53.925781 255.300781 C 54.601562 255.75 55.273438 256.648438 55.5 257.476562 C 55.726562 258.300781 55.199219 260.175781 55.199219 260.175781 " clip-rule="nonzero"/></clipPath><clipPath id="d2269b8b60"><path d="M 54.585938 256.710938 L 78.09375 256.710938 L 78.09375 277.511719 L 54.585938 277.511719 Z M 54.585938 256.710938 " clip-rule="nonzero"/></clipPath><clipPath id="929ee787f3"><path d="M 74.773438 277.425781 C 67.273438 276.898438 66.226562 276.601562 64.800781 275.851562 C 62.851562 274.800781 59.851562 272.925781 58.199219 270.675781 C 56.398438 268.199219 54.824219 263.476562 54.675781 261.300781 C 54.675781 260.175781 54.976562 259.351562 55.425781 258.675781 C 55.875 257.925781 56.773438 257.324219 57.601562 257.023438 C 58.425781 256.726562 59.476562 256.726562 60.300781 257.023438 C 61.125 257.324219 61.949219 258 62.476562 258.675781 C 62.925781 259.425781 63.226562 260.398438 63.148438 261.300781 C 63.148438 262.125 62.699219 263.175781 62.175781 263.773438 C 61.574219 264.449219 60.75 265.050781 59.851562 265.199219 C 58.726562 265.351562 56.851562 264.824219 56.023438 264.148438 C 55.273438 263.550781 54.898438 262.574219 54.75 261.75 C 54.601562 260.925781 54.675781 259.800781 55.199219 259.050781 C 55.800781 258.148438 57.300781 256.949219 58.5 256.800781 C 59.625 256.726562 61.351562 257.324219 62.175781 258.300781 C 63.074219 259.425781 62.625 261.898438 63.148438 263.476562 C 63.601562 264.824219 63.976562 266.101562 64.875 267 C 65.851562 268.050781 67.351562 268.800781 68.851562 269.25 C 70.574219 269.773438 73.351562 269.398438 74.851562 269.851562 C 75.898438 270.226562 76.726562 270.449219 77.25 271.125 C 77.851562 271.949219 78.148438 273.675781 78.074219 274.574219 C 77.925781 275.25 77.625 275.773438 77.175781 276.148438 C 76.648438 276.75 74.773438 277.425781 74.773438 277.425781 " clip-rule="nonzero"/></clipPath><clipPath id="6a42e9b992"><path d="M 56.328125 255.617188 L 74.082031 255.617188 L 74.082031 278.15625 L 56.328125 278.15625 Z M 56.328125 255.617188 " clip-rule="nonzero"/></clipPath><clipPath id="f7b4321578"><path d="M 69.824219 278.101562 C 63.601562 275.324219 62.625 274.726562 61.5 273.523438 C 60 271.800781 58.050781 268.726562 57.226562 266.175781 C 56.476562 263.773438 56.101562 260.25 56.550781 258.601562 C 56.851562 257.550781 57.449219 256.875 58.125 256.425781 C 58.875 255.976562 59.851562 255.601562 60.75 255.675781 C 61.800781 255.824219 63.523438 256.648438 64.125 257.699219 C 64.726562 258.675781 64.875 260.550781 64.351562 261.601562 C 63.898438 262.648438 62.324219 263.699219 61.273438 264 C 60.375 264.226562 59.398438 264 58.648438 263.625 C 57.898438 263.175781 57.148438 262.425781 56.773438 261.675781 C 56.398438 260.925781 56.25 259.800781 56.476562 258.976562 C 56.625 258.148438 57.148438 257.25 57.824219 256.726562 C 58.425781 256.125 59.398438 255.675781 60.300781 255.675781 C 61.351562 255.675781 63.148438 256.5 63.898438 257.324219 C 64.5 257.925781 64.574219 258.824219 64.726562 259.800781 C 64.949219 261.074219 64.199219 263.023438 64.5 264.449219 C 64.800781 265.800781 65.625 267.148438 66.523438 268.125 C 67.425781 269.101562 68.625 269.925781 69.675781 270.449219 C 70.648438 270.898438 71.699219 270.75 72.449219 271.199219 C 73.125 271.726562 73.800781 272.625 73.949219 273.449219 C 74.175781 274.425781 73.800781 276.074219 73.125 276.898438 C 72.449219 277.648438 69.824219 278.101562 69.824219 278.101562 " clip-rule="nonzero"/></clipPath></defs><path fill="#dbaeff" d="M 375 187.5 C 375 190.570312 374.925781 193.636719 374.773438 196.699219 C 374.625 199.765625 374.398438 202.824219 374.097656 205.878906 C 373.796875 208.933594 373.421875 211.976562 372.96875 215.011719 C 372.519531 218.046875 371.996094 221.070312 371.398438 224.078125 C 370.796875 227.089844 370.125 230.082031 369.378906 233.058594 C 368.636719 236.035156 367.816406 238.992188 366.925781 241.929688 C 366.035156 244.863281 365.074219 247.777344 364.039062 250.667969 C 363.003906 253.554688 361.902344 256.417969 360.726562 259.253906 C 359.554688 262.089844 358.308594 264.890625 356.996094 267.667969 C 355.6875 270.441406 354.308594 273.179688 352.859375 275.886719 C 351.414062 278.59375 349.902344 281.261719 348.324219 283.894531 C 346.746094 286.527344 345.105469 289.117188 343.402344 291.667969 C 341.695312 294.222656 339.929688 296.730469 338.101562 299.195312 C 336.273438 301.660156 334.386719 304.078125 332.4375 306.449219 C 330.492188 308.820312 328.488281 311.144531 326.429688 313.417969 C 324.367188 315.691406 322.253906 317.914062 320.082031 320.082031 C 317.914062 322.253906 315.691406 324.367188 313.417969 326.429688 C 311.144531 328.488281 308.820312 330.492188 306.449219 332.4375 C 304.078125 334.386719 301.660156 336.273438 299.195312 338.101562 C 296.730469 339.929688 294.222656 341.695312 291.667969 343.402344 C 289.117188 345.105469 286.527344 346.746094 283.894531 348.324219 C 281.261719 349.902344 278.59375 351.414062 275.886719 352.859375 C 273.179688 354.308594 270.441406 355.6875 267.667969 356.996094 C 264.890625 358.308594 262.089844 359.554688 259.253906 360.726562 C 256.417969 361.902344 253.554688 363.003906 250.667969 364.039062 C 247.777344 365.074219 244.863281 366.035156 241.929688 366.925781 C 238.992188 367.816406 236.035156 368.636719 233.058594 369.378906 C 230.082031 370.125 227.089844 370.796875 224.078125 371.398438 C 221.070312 371.996094 218.046875 372.519531 215.011719 372.96875 C 211.976562 373.421875 208.933594 373.796875 205.878906 374.097656 C 202.824219 374.398438 199.765625 374.625 196.699219 374.773438 C 193.636719 374.925781 190.570312 375 187.5 375 C 184.429688 375 181.363281 374.925781 178.300781 374.773438 C 175.234375 374.625 172.175781 374.398438 169.121094 374.097656 C 166.066406 373.796875 163.023438 373.421875 159.988281 372.96875 C 156.953125 372.519531 153.929688 371.996094 150.921875 371.398438 C 147.910156 370.796875 144.917969 370.125 141.941406 369.378906 C 138.964844 368.636719 136.007812 367.816406 133.070312 366.925781 C 130.136719 366.035156 127.222656 365.074219 124.332031 364.039062 C 121.445312 363.003906 118.582031 361.902344 115.746094 360.726562 C 112.910156 359.554688 110.105469 358.308594 107.332031 356.996094 C 104.558594 355.6875 101.820312 354.308594 99.113281 352.859375 C 96.40625 351.414062 93.738281 349.902344 91.105469 348.324219 C 88.472656 346.746094 85.882812 345.105469 83.332031 343.402344 C 80.777344 341.695312 78.269531 339.929688 75.804688 338.101562 C 73.339844 336.273438 70.921875 334.386719 68.550781 332.4375 C 66.179688 330.492188 63.855469 328.488281 61.582031 326.429688 C 59.308594 324.367188 57.085938 322.253906 54.917969 320.082031 C 52.746094 317.914062 50.632812 315.691406 48.570312 313.417969 C 46.511719 311.144531 44.507812 308.820312 42.558594 306.449219 C 40.613281 304.078125 38.726562 301.660156 36.898438 299.195312 C 35.070312 296.730469 33.304688 294.222656 31.597656 291.667969 C 29.894531 289.117188 28.253906 286.527344 26.675781 283.894531 C 25.097656 281.261719 23.585938 278.59375 22.140625 275.886719 C 20.691406 273.179688 19.3125 270.441406 18.003906 267.667969 C 16.691406 264.890625 15.445312 262.089844 14.273438 259.253906 C 13.097656 256.417969 11.996094 253.554688 10.960938 250.667969 C 9.925781 247.777344 8.964844 244.863281 8.074219 241.929688 C 7.183594 238.992188 6.363281 236.035156 5.621094 233.058594 C 4.875 230.082031 4.203125 227.089844 3.601562 224.078125 C 3.003906 221.070312 2.480469 218.046875 2.03125 215.011719 C 1.578125 211.976562 1.203125 208.933594 0.902344 205.878906 C 0.601562 202.824219 0.375 199.765625 0.226562 196.699219 C 0.0742188 193.636719 0 190.570312 0 187.5 C 0 184.429688 0.0742188 181.363281 0.226562 178.300781 C 0.375 175.234375 0.601562 172.175781 0.902344 169.121094 C 1.203125 166.066406 1.578125 163.023438 2.03125 159.988281 C 2.480469 156.953125 3.003906 153.929688 3.601562 150.921875 C 4.203125 147.910156 4.875 144.917969 5.621094 141.941406 C 6.363281 138.964844 7.183594 136.007812 8.074219 133.070312 C 8.964844 130.136719 9.925781 127.222656 10.960938 124.332031 C 11.996094 121.445312 13.097656 118.582031 14.273438 115.746094 C 15.445312 112.910156 16.691406 110.105469 18.003906 107.332031 C 19.3125 104.558594 20.691406 101.820312 22.140625 99.113281 C 23.585938 96.40625 25.097656 93.738281 26.675781 91.105469 C 28.253906 88.472656 29.894531 85.882812 31.597656 83.332031 C 33.304688 80.777344 35.070312 78.269531 36.898438 75.804688 C 38.726562 73.339844 40.613281 70.921875 42.558594 68.550781 C 44.507812 66.179688 46.511719 63.855469 48.570312 61.582031 C 50.632812 59.308594 52.746094 57.085938 54.917969 54.917969 C 57.085938 52.746094 59.308594 50.632812 61.582031 48.570312 C 63.855469 46.511719 66.179688 44.507812 68.550781 42.558594 C 70.921875 40.613281 73.339844 38.726562 75.804688 36.898438 C 78.269531 35.070312 80.777344 33.304688 83.332031 31.597656 C 85.882812 29.894531 88.472656 28.253906 91.105469 26.675781 C 93.738281 25.097656 96.40625 23.585938 99.113281 22.140625 C 101.820312 20.691406 104.558594 19.3125 107.332031 18.003906 C 110.105469 16.691406 112.910156 15.445312 115.746094 14.273438 C 118.582031 13.097656 121.445312 11.996094 124.332031 10.960938 C 127.222656 9.925781 130.136719 8.964844 133.070312 8.074219 C 136.007812 7.183594 138.964844 6.363281 141.941406 5.617188 C 144.917969 4.875 147.910156 4.203125 150.921875 3.601562 C 153.929688 3.003906 156.953125 2.480469 159.988281 2.03125 C 163.023438 1.578125 166.066406 1.203125 169.121094 0.902344 C 172.175781 0.601562 175.234375 0.375 178.300781 0.226562 C 181.363281 0.0742188 184.429688 0 187.5 0 C 190.570312 0 193.636719 0.0742188 196.699219 0.226562 C 199.765625 0.375 202.824219 0.601562 205.878906 0.902344 C 208.933594 1.203125 211.976562 1.578125 215.011719 2.03125 C 218.046875 2.480469 221.070312 3.003906 224.078125 3.601562 C 227.089844 4.203125 230.082031 4.875 233.058594 5.617188 C 236.035156 6.363281 238.992188 7.183594 241.929688 8.074219 C 244.863281 8.964844 247.777344 9.925781 250.667969 10.960938 C 253.554688 11.996094 256.417969 13.097656 259.253906 14.273438 C 262.089844 15.445312 264.890625 16.691406 267.667969 18.003906 C 270.441406 19.3125 273.179688 20.691406 275.886719 22.140625 C 278.59375 23.585938 281.261719 25.097656 283.894531 26.675781 C 286.527344 28.253906 289.117188 29.894531 291.667969 31.597656 C 294.222656 33.304688 296.730469 35.070312 299.195312 36.898438 C 301.660156 38.726562 304.078125 40.613281 306.449219 42.558594 C 308.820312 44.507812 311.144531 46.511719 313.417969 48.570312 C 315.691406 50.632812 317.914062 52.746094 320.082031 54.917969 C 322.253906 57.085938 324.367188 59.308594 326.429688 61.582031 C 328.488281 63.855469 330.492188 66.179688 332.4375 68.550781 C 334.386719 70.921875 336.273438 73.339844 338.101562 75.804688 C 339.929688 78.269531 341.695312 80.777344 343.402344 83.332031 C 345.105469 85.882812 346.746094 88.472656 348.324219 91.105469 C 349.902344 93.738281 351.414062 96.40625 352.859375 99.113281 C 354.308594 101.820312 355.6875 104.558594 356.996094 107.332031 C 358.308594 110.105469 359.554688 112.910156 360.726562 115.746094 C 361.902344 118.582031 363.003906 121.445312 364.039062 124.332031 C 365.074219 127.222656 366.035156 130.136719 366.925781 133.070312 C 367.816406 136.007812 368.636719 138.964844 369.378906 141.941406 C 370.125 144.917969 370.796875 147.910156 371.398438 150.921875 C 371.996094 153.929688 372.519531 156.953125 372.96875 159.988281 C 373.421875 163.023438 373.796875 166.066406 374.097656 169.121094 C 374.398438 172.175781 374.625 175.234375 374.773438 178.300781 C 374.925781 181.363281 375 184.429688 375 187.5 Z M 375 187.5 " fill-opacity="1" fill-rule="nonzero"/><path fill="#dbaeff" d="M 187.5 357.601562 C 185.699219 357.601562 183.898438 357.601562 182.175781 357.523438 L 182.398438 350.398438 C 188.175781 350.550781 194.101562 350.476562 199.800781 350.023438 L 200.324219 357.074219 C 196.050781 357.449219 191.773438 357.601562 187.5 357.601562 Z M 174.898438 357.148438 C 168.898438 356.699219 162.824219 355.949219 156.898438 354.824219 L 158.175781 347.851562 C 163.875 348.898438 169.648438 349.648438 175.425781 350.023438 Z M 207.523438 356.476562 L 206.699219 349.425781 C 212.476562 348.75 218.25 347.773438 223.875 346.5 L 225.449219 353.398438 C 219.601562 354.675781 213.523438 355.726562 207.523438 356.476562 Z M 149.773438 353.398438 C 143.925781 352.050781 138 350.398438 132.300781 348.449219 L 134.625 341.699219 C 140.101562 343.574219 145.726562 345.148438 151.351562 346.425781 Z M 232.5 351.601562 L 230.625 344.773438 C 236.175781 343.273438 241.726562 341.398438 247.125 339.300781 L 249.75 345.898438 C 244.125 348.074219 238.351562 350.023438 232.5 351.601562 Z M 125.398438 345.898438 C 119.773438 343.726562 114.226562 341.175781 108.824219 338.398438 L 112.125 332.101562 C 117.226562 334.800781 122.550781 337.199219 127.949219 339.300781 Z M 256.425781 343.050781 L 253.574219 336.523438 C 258.824219 334.199219 264.074219 331.5 269.101562 328.648438 L 272.699219 334.800781 C 267.375 337.875 261.976562 340.648438 256.425781 343.050781 Z M 102.523438 334.875 C 97.273438 331.875 92.175781 328.5 87.300781 324.976562 L 91.5 319.273438 C 96.148438 322.726562 101.101562 325.875 106.125 328.800781 Z M 278.851562 331.050781 L 275.023438 325.050781 C 279.898438 321.976562 284.699219 318.523438 289.199219 314.925781 L 293.625 320.476562 C 288.898438 324.226562 283.875 327.824219 278.851562 331.050781 Z M 81.523438 320.550781 C 76.800781 316.800781 72.226562 312.75 67.949219 308.476562 L 72.976562 303.449219 C 77.101562 307.5 81.449219 311.398438 86.023438 315 Z M 299.175781 315.824219 L 294.523438 310.5 C 298.875 306.675781 303.074219 302.625 307.050781 298.425781 L 312.226562 303.226562 C 308.101562 307.648438 303.75 311.851562 299.175781 315.824219 Z M 62.851562 303.300781 C 58.726562 298.875 54.824219 294.226562 51.226562 289.351562 L 56.925781 285.074219 C 60.375 289.726562 64.125 294.226562 68.101562 298.425781 Z M 317.023438 297.75 L 311.625 293.175781 C 315.375 288.75 318.976562 284.101562 322.199219 279.375 L 328.050781 283.351562 C 324.675781 288.300781 321 293.175781 317.023438 297.75 Z M 47.023438 283.425781 C 43.648438 278.398438 40.425781 273.226562 37.574219 267.898438 L 43.875 264.523438 C 46.574219 269.625 49.648438 274.648438 52.949219 279.375 Z M 332.023438 277.273438 L 326.023438 273.523438 C 329.101562 268.574219 331.875 263.476562 334.425781 258.300781 L 340.800781 261.375 C 338.175781 266.773438 335.25 272.101562 332.023438 277.273438 Z M 34.273438 261.449219 C 31.648438 255.976562 29.25 250.351562 27.226562 244.648438 L 33.898438 242.25 C 35.851562 247.648438 38.101562 253.125 40.648438 258.300781 Z M 343.800781 254.699219 L 337.273438 251.925781 C 339.601562 246.601562 341.550781 241.125 343.273438 235.574219 L 350.101562 237.675781 C 348.300781 243.375 346.199219 249.148438 343.800781 254.699219 Z M 24.976562 237.824219 C 23.175781 232.050781 21.675781 226.125 20.550781 220.199219 L 27.523438 218.851562 C 28.648438 224.550781 30.074219 230.175781 31.726562 235.726562 Z M 352.125 230.625 L 345.226562 228.824219 C 346.726562 223.199219 347.851562 217.5 348.75 211.800781 L 355.800781 212.851562 C 354.824219 218.851562 353.625 224.773438 352.125 230.625 Z M 19.273438 213 C 18.375 207.074219 17.773438 200.925781 17.550781 194.925781 L 24.675781 194.625 C 24.898438 200.398438 25.5 206.25 26.324219 211.949219 Z M 356.699219 205.648438 L 349.648438 204.898438 C 350.25 199.199219 350.550781 193.351562 350.550781 187.5 L 350.550781 187.125 L 357.675781 187.125 L 357.675781 187.5 C 357.601562 193.574219 357.300781 199.648438 356.699219 205.648438 Z M 24.449219 187.648438 L 17.324219 187.648438 L 17.324219 187.5 C 17.324219 181.5 17.625 175.5 18.226562 169.574219 L 25.273438 170.324219 C 24.675781 176.023438 24.375 181.800781 24.375 187.5 Z M 350.324219 180.148438 C 350.101562 174.375 349.5 168.523438 348.675781 162.824219 L 355.726562 161.773438 C 356.625 167.699219 357.226562 173.773438 357.449219 179.851562 Z M 26.25 163.351562 L 19.199219 162.300781 C 20.101562 156.300781 21.300781 150.375 22.800781 144.523438 L 29.699219 146.324219 C 28.273438 151.949219 27.074219 157.648438 26.25 163.351562 Z M 347.476562 156 C 346.351562 150.300781 344.925781 144.675781 343.199219 139.125 L 350.023438 137.023438 C 351.824219 142.800781 353.324219 148.726562 354.449219 154.648438 Z M 31.648438 139.648438 L 24.824219 137.550781 C 26.625 131.773438 28.726562 126 31.050781 120.449219 L 37.574219 123.226562 C 35.324219 128.625 33.300781 134.101562 31.648438 139.648438 Z M 341.023438 132.523438 C 339.074219 127.050781 336.824219 121.726562 334.273438 116.476562 L 340.648438 113.398438 C 343.273438 118.800781 345.675781 124.5 347.699219 130.125 Z M 40.5 116.925781 L 34.125 113.851562 C 36.75 108.449219 39.675781 103.050781 42.898438 97.949219 L 48.976562 101.699219 C 45.824219 106.574219 43.050781 111.75 40.5 116.925781 Z M 331.125 110.25 C 328.351562 105.148438 325.351562 100.199219 322.050781 95.398438 L 327.898438 91.351562 C 331.351562 96.300781 334.5 101.550781 337.351562 106.875 Z M 52.726562 95.851562 L 46.875 91.875 C 50.25 86.851562 54 82.050781 57.898438 77.398438 L 63.300781 81.976562 C 59.476562 86.398438 55.949219 91.050781 52.726562 95.851562 Z M 318 89.773438 C 314.550781 85.125 310.800781 80.699219 306.824219 76.425781 L 312 71.550781 C 316.125 75.976562 320.023438 80.625 323.625 85.5 Z M 67.875 76.726562 L 62.625 71.925781 C 66.75 67.5 71.175781 63.226562 75.675781 59.25 L 80.324219 64.574219 C 75.976562 68.398438 71.773438 72.523438 67.875 76.726562 Z M 301.949219 71.398438 C 297.824219 67.351562 293.476562 63.449219 288.898438 59.851562 L 293.324219 54.300781 C 298.050781 58.050781 302.625 62.101562 306.898438 66.375 Z M 85.726562 60.148438 L 81.300781 54.601562 C 86.023438 50.851562 90.976562 47.25 96.074219 44.023438 L 99.898438 50.023438 C 94.949219 53.101562 90.226562 56.550781 85.726562 60.148438 Z M 283.351562 55.648438 C 278.699219 52.273438 273.75 49.050781 268.726562 46.199219 L 272.25 40.050781 C 277.5 43.050781 282.601562 46.425781 287.476562 49.949219 Z M 105.824219 46.425781 L 102.226562 40.273438 C 107.476562 37.273438 112.875 34.425781 118.425781 32.023438 L 121.351562 38.550781 C 116.023438 40.875 110.773438 43.5 105.824219 46.425781 Z M 262.648438 42.824219 C 257.476562 40.125 252.148438 37.726562 246.824219 35.625 L 249.375 29.023438 C 255 31.199219 260.550781 33.75 265.949219 36.523438 Z M 127.726562 35.773438 L 125.101562 29.175781 C 130.726562 26.925781 136.5 25.050781 142.351562 23.398438 L 144.226562 30.226562 C 138.601562 31.800781 133.050781 33.675781 127.726562 35.773438 Z M 240.226562 33.226562 C 234.75 31.351562 229.125 29.773438 223.5 28.5 L 225.074219 21.601562 C 231 22.949219 236.851562 24.601562 242.550781 26.550781 Z M 150.976562 28.574219 L 149.398438 21.675781 C 155.25 20.324219 161.324219 19.273438 167.324219 18.601562 L 168.148438 25.648438 C 162.375 26.324219 156.601562 27.300781 150.976562 28.574219 Z M 216.675781 27.074219 C 210.976562 26.023438 205.199219 25.351562 199.425781 24.898438 L 199.949219 17.773438 C 205.949219 18.226562 212.023438 18.976562 217.949219 20.023438 Z M 175.050781 24.976562 L 174.523438 17.851562 C 180.523438 17.398438 186.675781 17.25 192.675781 17.476562 L 192.449219 24.601562 C 186.675781 24.375 180.824219 24.523438 175.050781 24.976562 Z M 175.050781 24.976562 " fill-opacity="1" fill-rule="nonzero"/><g fill="#5e376d" fill-opacity="1"><g transform="translate(16.603249, 229.775291)"><g><path d="M 4.890625 -50.5 C 4.890625 -61.101562 6.976562 -70.332031 11.15625 -78.1875 C 15.34375 -86.050781 21.503906 -92.144531 29.640625 -96.46875 C 37.785156 -100.800781 47.765625 -102.96875 59.578125 -102.96875 C 71.484375 -102.96875 81.503906 -100.800781 89.640625 -96.46875 C 97.773438 -92.144531 103.9375 -86.050781 108.125 -78.1875 C 112.3125 -70.332031 114.40625 -61.101562 114.40625 -50.5 C 114.5 -39.894531 112.425781 -30.6875 108.1875 -22.875 C 103.957031 -15.0625 97.773438 -8.992188 89.640625 -4.671875 C 81.503906 -0.347656 71.484375 1.8125 59.578125 1.8125 C 47.765625 1.8125 37.785156 -0.347656 29.640625 -4.671875 C 21.503906 -8.992188 15.34375 -15.0625 11.15625 -22.875 C 6.976562 -30.6875 4.890625 -39.894531 4.890625 -50.5 Z M 54.40625 -94.3125 C 49.476562 -93.75 45.78125 -91.421875 43.3125 -87.328125 C 40.851562 -83.242188 39.410156 -77.851562 38.984375 -71.15625 C 38.566406 -64.457031 38.875 -56.785156 39.90625 -48.140625 C 40.925781 -39.484375 42.457031 -31.96875 44.5 -25.59375 C 46.550781 -19.226562 49.25 -14.367188 52.59375 -11.015625 C 55.945312 -7.671875 60.085938 -6.28125 65.015625 -6.84375 C 70.035156 -7.488281 73.726562 -9.832031 76.09375 -13.875 C 78.46875 -17.925781 79.863281 -23.300781 80.28125 -30 C 80.707031 -36.695312 80.410156 -44.320312 79.390625 -52.875 C 78.359375 -61.519531 76.820312 -69.050781 74.78125 -75.46875 C 72.738281 -81.894531 70.066406 -86.804688 66.765625 -90.203125 C 63.460938 -93.597656 59.34375 -94.96875 54.40625 -94.3125 Z M 54.40625 -94.3125 "/></g></g></g><g fill="#5e376d" fill-opacity="1"><g transform="translate(134.466118, 229.775291)"><g><path d="M 4.890625 -50.5 C 4.515625 -61.101562 6.441406 -70.332031 10.671875 -78.1875 C 14.898438 -86.050781 21.175781 -92.144531 29.5 -96.46875 C 37.832031 -100.800781 47.90625 -102.96875 59.71875 -102.96875 C 72.457031 -102.96875 82.875 -100.875 90.96875 -96.6875 C 99.0625 -92.5 104.410156 -86.820312 107.015625 -79.65625 C 107.847656 -77.613281 108.265625 -75.289062 108.265625 -72.6875 C 108.265625 -70.082031 107.796875 -67.59375 106.859375 -65.21875 C 105.929688 -62.851562 104.375 -60.832031 102.1875 -59.15625 C 100.007812 -57.476562 97.101562 -56.5 93.46875 -56.21875 C 89.46875 -55.945312 85.835938 -56.4375 82.578125 -57.6875 C 79.328125 -58.945312 76.816406 -60.992188 75.046875 -63.828125 C 73.285156 -66.660156 72.546875 -70.265625 72.828125 -74.640625 C 73.296875 -80.410156 72.664062 -84.78125 70.9375 -87.75 C 69.21875 -90.726562 66.894531 -92.679688 63.96875 -93.609375 C 61.039062 -94.546875 57.851562 -94.78125 54.40625 -94.3125 C 49.476562 -93.75 45.804688 -91.421875 43.390625 -87.328125 C 40.972656 -83.242188 39.53125 -77.851562 39.0625 -71.15625 C 38.59375 -64.457031 38.875 -56.785156 39.90625 -48.140625 C 40.457031 -43.296875 41.453125 -38.617188 42.890625 -34.109375 C 44.335938 -29.597656 46.316406 -25.597656 48.828125 -22.109375 C 51.335938 -18.617188 54.519531 -15.851562 58.375 -13.8125 C 62.238281 -11.769531 66.914062 -10.75 72.40625 -10.75 C 79.476562 -10.75 85.546875 -13.050781 90.609375 -17.65625 C 95.679688 -22.257812 98.820312 -28.601562 100.03125 -36.6875 C 100.3125 -38.644531 100.867188 -40.550781 101.703125 -42.40625 C 102.546875 -44.269531 104.128906 -45.109375 106.453125 -44.921875 C 108.585938 -44.828125 109.929688 -43.847656 110.484375 -41.984375 C 111.046875 -40.128906 111.191406 -38.039062 110.921875 -35.71875 C 109.429688 -23.34375 104.335938 -13.992188 95.640625 -7.671875 C 86.941406 -1.347656 75.242188 1.8125 60.546875 1.8125 C 48.734375 1.8125 38.757812 -0.441406 30.625 -4.953125 C 22.488281 -9.460938 16.253906 -15.644531 11.921875 -23.5 C 7.597656 -31.363281 5.253906 -40.363281 4.890625 -50.5 Z M 4.890625 -50.5 "/></g></g></g><g fill="#5e376d" fill-opacity="1"><g transform="translate(248.702445, 229.775291)"><g><path d="M 13.25 -80.078125 C 11.757812 -77.847656 9.898438 -76.734375 7.671875 -76.734375 C 6.367188 -76.734375 5.273438 -77.21875 4.390625 -78.1875 C 3.503906 -79.164062 3.25 -80.632812 3.625 -82.59375 C 4 -85.007812 4.488281 -87.539062 5.09375 -90.1875 C 5.695312 -92.84375 6.234375 -95.101562 6.703125 -96.96875 C 6.972656 -98.269531 7.597656 -99.269531 8.578125 -99.96875 C 9.554688 -100.664062 10.648438 -101.015625 11.859375 -101.015625 L 97.796875 -101.015625 C 100.585938 -101.015625 102.359375 -99.664062 103.109375 -96.96875 C 103.566406 -95.101562 104.070312 -92.84375 104.625 -90.1875 C 105.1875 -87.539062 105.65625 -85.007812 106.03125 -82.59375 C 106.40625 -80.632812 106.148438 -79.164062 105.265625 -78.1875 C 104.378906 -77.21875 103.285156 -76.734375 101.984375 -76.734375 C 99.847656 -76.734375 97.988281 -77.847656 96.40625 -80.078125 C 95.195312 -82.035156 93.960938 -83.988281 92.703125 -85.9375 C 91.453125 -87.894531 89.570312 -89.523438 87.0625 -90.828125 C 84.550781 -92.128906 80.875 -92.78125 76.03125 -92.78125 L 71.984375 -92.78125 L 71.984375 -13.671875 C 71.984375 -11.160156 73.148438 -9.113281 75.484375 -7.53125 C 75.941406 -7.34375 76.378906 -7.109375 76.796875 -6.828125 C 77.222656 -6.554688 77.617188 -6.28125 77.984375 -6 C 79.191406 -5.164062 79.539062 -3.957031 79.03125 -2.375 C 78.519531 -0.789062 77.519531 0 76.03125 0 L 32.921875 0 C 31.523438 0 30.59375 -0.789062 30.125 -2.375 C 29.664062 -3.957031 29.992188 -5.164062 31.109375 -6 C 31.578125 -6.28125 32.039062 -6.554688 32.5 -6.828125 C 32.96875 -7.109375 33.4375 -7.390625 33.90625 -7.671875 C 35.113281 -8.234375 36.039062 -9.070312 36.6875 -10.1875 C 37.34375 -11.300781 37.71875 -12.460938 37.8125 -13.671875 L 37.8125 -92.78125 L 33.625 -92.78125 C 28.789062 -92.78125 25.140625 -92.128906 22.671875 -90.828125 C 20.203125 -89.523438 18.335938 -87.894531 17.078125 -85.9375 C 15.828125 -83.988281 14.550781 -82.035156 13.25 -80.078125 Z M 13.25 -80.078125 "/></g></g></g><g clip-path="url(#89e2d71edd)"><g clip-path="url(#b4e6ceafbb)"><path fill="#5e376d" d="M 47.476562 240.898438 L 336.425781 240.898438 L 336.425781 267.75 L 47.476562 267.75 Z M 47.476562 240.898438 " fill-opacity="1" fill-rule="nonzero"/></g></g><g clip-path="url(#e42c6385f8)"><g clip-path="url(#a400e065c8)"><path fill="#5e376d" d="M 148.726562 245.398438 L 161.773438 245.398438 L 161.773438 258.910156 L 148.726562 258.910156 Z M 148.726562 245.398438 " fill-opacity="1" fill-rule="nonzero"/></g></g><g clip-path="url(#cfb4e38468)"><g clip-path="url(#d9527fde10)"><path fill="#5e376d" d="M 44.625 244.648438 L 81.957031 244.648438 L 81.957031 281.550781 L 44.625 281.550781 Z M 44.625 244.648438 " fill-opacity="1" fill-rule="nonzero"/></g></g><g clip-path="url(#1bfeaefa8e)"><g clip-path="url(#817cee9747)"><path fill="#5e376d" d="M 43.125 240.449219 L 72.375 240.449219 L 72.375 276.554688 L 43.125 276.554688 Z M 43.125 240.449219 " fill-opacity="1" fill-rule="nonzero"/></g></g><g clip-path="url(#dec13109e6)"><g clip-path="url(#ad704dd88a)"><path fill="#5e376d" d="M 43.273438 251.699219 L 68.324219 251.699219 L 68.324219 279.980469 L 43.273438 279.980469 Z M 43.273438 251.699219 " fill-opacity="1" fill-rule="nonzero"/></g></g><g clip-path="url(#d2269b8b60)"><g clip-path="url(#929ee787f3)"><path fill="#5e376d" d="M 51.675781 253.800781 L 81.109375 253.800781 L 81.109375 280.425781 L 51.675781 280.425781 Z M 51.675781 253.800781 " fill-opacity="1" fill-rule="nonzero"/></g></g><g clip-path="url(#6a42e9b992)"><g clip-path="url(#f7b4321578)"><path fill="#5e376d" d="M 53.476562 252.675781 L 77.023438 252.675781 L 77.023438 281.191406 L 53.476562 281.191406 Z M 53.476562 252.675781 " fill-opacity="1" fill-rule="nonzero"/></g></g></svg>