<svg xmlns="http://www.w3.org/2000/svg" xmlns:xlink="http://www.w3.org/1999/xlink" width="500" zoomAndPan="magnify" viewBox="0 0 375 374.999991" height="500" preserveAspectRatio="xMidYMid meet" version="1.0"><defs><g/><clipPath id="88512d1730"><path d="M 91 289 L 118 289 L 118 317 L 91 317 Z M 91 289 " clip-rule="nonzero"/></clipPath><clipPath id="b41b3c3861"><path d="M 99.742188 277.503906 L 131.039062 298.15625 L 112.039062 326.953125 L 80.738281 306.296875 Z M 99.742188 277.503906 " clip-rule="nonzero"/></clipPath><clipPath id="ef30586cd9"><path d="M 130.738281 297.957031 L 99.4375 277.300781 L 80.4375 306.097656 L 111.734375 326.753906 Z M 130.738281 297.957031 " clip-rule="nonzero"/></clipPath><clipPath id="ed4fe7fda4"><path d="M 126.792969 298.53125 L 99.890625 280.773438 L 82.160156 307.636719 L 109.066406 325.394531 Z M 126.792969 298.53125 " clip-rule="nonzero"/></clipPath><clipPath id="d63ba2d1b5"><path d="M 108 313 L 117 313 L 117 322 L 108 322 Z M 108 313 " clip-rule="nonzero"/></clipPath><clipPath id="765450e185"><path d="M 99.742188 277.503906 L 131.039062 298.15625 L 112.039062 326.953125 L 80.738281 306.296875 Z M 99.742188 277.503906 " clip-rule="nonzero"/></clipPath><clipPath id="0fec33d7a9"><path d="M 130.738281 297.957031 L 99.4375 277.300781 L 80.4375 306.097656 L 111.734375 326.753906 Z M 130.738281 297.957031 " clip-rule="nonzero"/></clipPath><clipPath id="4079eaa44c"><path d="M 95 281 L 108 281 L 108 294 L 95 294 Z M 95 281 " clip-rule="nonzero"/></clipPath><clipPath id="6eeef01e66"><path d="M 99.742188 277.503906 L 131.039062 298.15625 L 112.039062 326.953125 L 80.738281 306.296875 Z M 99.742188 277.503906 " clip-rule="nonzero"/></clipPath><clipPath id="41b9087279"><path d="M 130.738281 297.957031 L 99.4375 277.300781 L 80.4375 306.097656 L 111.734375 326.753906 Z M 130.738281 297.957031 " clip-rule="nonzero"/></clipPath><clipPath id="9c4890b88c"><path d="M 111.554688 285.304688 L 99.738281 277.503906 L 91.953125 289.300781 L 103.769531 297.101562 Z M 111.554688 285.304688 " clip-rule="nonzero"/></clipPath><clipPath id="08084b2c6d"><path d="M 256 289 L 285 289 L 285 318 L 256 318 Z M 256 289 " clip-rule="nonzero"/></clipPath><clipPath id="018f1395e2"><path d="M 244.257812 297.039062 L 276.542969 277.964844 L 294.09375 307.667969 L 261.808594 326.742188 Z M 244.257812 297.039062 " clip-rule="nonzero"/></clipPath><clipPath id="5e995653ae"><path d="M 244.257812 297.039062 L 276.542969 277.964844 L 294.09375 307.667969 L 261.808594 326.742188 Z M 244.257812 297.039062 " clip-rule="nonzero"/></clipPath><clipPath id="9ba9008363"><path d="M 248.167969 297.808594 L 275.921875 281.410156 L 292.292969 309.121094 L 264.539062 325.519531 Z M 248.167969 297.808594 " clip-rule="nonzero"/></clipPath><clipPath id="bf7dffd751"><path d="M 257 313 L 266 313 L 266 322 L 257 322 Z M 257 313 " clip-rule="nonzero"/></clipPath><clipPath id="85308c1442"><path d="M 244.257812 297.039062 L 276.542969 277.964844 L 294.09375 307.667969 L 261.808594 326.742188 Z M 244.257812 297.039062 " clip-rule="nonzero"/></clipPath><clipPath id="94eb603125"><path d="M 244.257812 297.039062 L 276.542969 277.964844 L 294.09375 307.667969 L 261.808594 326.742188 Z M 244.257812 297.039062 " clip-rule="nonzero"/></clipPath><clipPath id="3412f83d38"><path d="M 267 281 L 280 281 L 280 294 L 267 294 Z M 267 281 " clip-rule="nonzero"/></clipPath><clipPath id="023d2edae5"><path d="M 244.257812 297.039062 L 276.542969 277.964844 L 294.09375 307.667969 L 261.808594 326.742188 Z M 244.257812 297.039062 " clip-rule="nonzero"/></clipPath><clipPath id="52eaf908b6"><path d="M 244.257812 297.039062 L 276.542969 277.964844 L 294.09375 307.667969 L 261.808594 326.742188 Z M 244.257812 297.039062 " clip-rule="nonzero"/></clipPath><clipPath id="12709ac929"><path d="M 264.042969 285.355469 L 276.234375 278.152344 L 283.425781 290.320312 L 271.234375 297.523438 Z M 264.042969 285.355469 " clip-rule="nonzero"/></clipPath><clipPath id="acd1f4166c"><path d="M 82 99 L 307 99 L 307 285 L 82 285 Z M 82 99 " clip-rule="nonzero"/></clipPath><clipPath id="ef5895aee1"><path d="M 59.753906 141.34375 L 262.460938 80.996094 L 320.882812 277.234375 L 118.171875 337.582031 Z M 59.753906 141.34375 " clip-rule="nonzero"/></clipPath><clipPath id="da3b1da8cf"><path d="M 59.753906 141.34375 L 262.460938 80.996094 L 320.882812 277.234375 L 118.171875 337.582031 Z M 59.753906 141.34375 " clip-rule="nonzero"/></clipPath><clipPath id="14e681ff9d"><path d="M 59.753906 141.347656 L 262.234375 81.070312 L 320.621094 277.203125 L 118.144531 337.480469 Z M 59.753906 141.347656 " clip-rule="nonzero"/></clipPath></defs><path fill="#dbaeff" d="M 375 187.5 C 375 190.570312 374.925781 193.636719 374.773438 196.699219 C 374.625 199.765625 374.398438 202.824219 374.097656 205.878906 C 373.796875 208.933594 373.421875 211.976562 372.96875 215.011719 C 372.519531 218.046875 371.996094 221.070312 371.398438 224.078125 C 370.796875 227.089844 370.125 230.082031 369.378906 233.058594 C 368.636719 236.035156 367.816406 238.992188 366.925781 241.929688 C 366.035156 244.863281 365.074219 247.777344 364.039062 250.667969 C 363.003906 253.554688 361.902344 256.417969 360.726562 259.253906 C 359.554688 262.089844 358.308594 264.890625 356.996094 267.667969 C 355.6875 270.441406 354.308594 273.179688 352.859375 275.886719 C 351.414062 278.59375 349.902344 281.261719 348.324219 283.894531 C 346.746094 286.527344 345.105469 289.117188 343.402344 291.667969 C 341.695312 294.222656 339.929688 296.730469 338.101562 299.195312 C 336.273438 301.660156 334.386719 304.078125 332.4375 306.449219 C 330.492188 308.820312 328.488281 311.144531 326.429688 313.417969 C 324.367188 315.691406 322.253906 317.914062 320.082031 320.082031 C 317.914062 322.253906 315.691406 324.367188 313.417969 326.429688 C 311.144531 328.488281 308.820312 330.492188 306.449219 332.4375 C 304.078125 334.386719 301.660156 336.273438 299.195312 338.101562 C 296.730469 339.929688 294.222656 341.695312 291.667969 343.402344 C 289.117188 345.105469 286.527344 346.746094 283.894531 348.324219 C 281.261719 349.902344 278.59375 351.414062 275.886719 352.859375 C 273.179688 354.308594 270.441406 355.6875 267.667969 356.996094 C 264.890625 358.308594 262.089844 359.554688 259.253906 360.726562 C 256.417969 361.902344 253.554688 363.003906 250.667969 364.039062 C 247.777344 365.074219 244.863281 366.035156 241.929688 366.925781 C 238.992188 367.816406 236.035156 368.636719 233.058594 369.378906 C 230.082031 370.125 227.089844 370.796875 224.078125 371.398438 C 221.070312 371.996094 218.046875 372.519531 215.011719 372.96875 C 211.976562 373.421875 208.933594 373.796875 205.878906 374.097656 C 202.824219 374.398438 199.765625 374.625 196.699219 374.773438 C 193.636719 374.925781 190.570312 375 187.5 375 C 184.429688 375 181.363281 374.925781 178.300781 374.773438 C 175.234375 374.625 172.175781 374.398438 169.121094 374.097656 C 166.066406 373.796875 163.023438 373.421875 159.988281 372.96875 C 156.953125 372.519531 153.929688 371.996094 150.921875 371.398438 C 147.910156 370.796875 144.917969 370.125 141.941406 369.378906 C 138.964844 368.636719 136.007812 367.816406 133.070312 366.925781 C 130.136719 366.035156 127.222656 365.074219 124.332031 364.039062 C 121.445312 363.003906 118.582031 361.902344 115.746094 360.726562 C 112.910156 359.554688 110.105469 358.308594 107.332031 356.996094 C 104.558594 355.6875 101.820312 354.308594 99.113281 352.859375 C 96.40625 351.414062 93.738281 349.902344 91.105469 348.324219 C 88.472656 346.746094 85.882812 345.105469 83.332031 343.402344 C 80.777344 341.695312 78.269531 339.929688 75.804688 338.101562 C 73.339844 336.273438 70.921875 334.386719 68.550781 332.4375 C 66.179688 330.492188 63.855469 328.488281 61.582031 326.429688 C 59.308594 324.367188 57.085938 322.253906 54.917969 320.082031 C 52.746094 317.914062 50.632812 315.691406 48.570312 313.417969 C 46.511719 311.144531 44.507812 308.820312 42.558594 306.449219 C 40.613281 304.078125 38.726562 301.660156 36.898438 299.195312 C 35.070312 296.730469 33.304688 294.222656 31.597656 291.667969 C 29.894531 289.117188 28.253906 286.527344 26.675781 283.894531 C 25.097656 281.261719 23.585938 278.59375 22.140625 275.886719 C 20.691406 273.179688 19.3125 270.441406 18.003906 267.667969 C 16.691406 264.890625 15.445312 262.089844 14.273438 259.253906 C 13.097656 256.417969 11.996094 253.554688 10.960938 250.667969 C 9.925781 247.777344 8.964844 244.863281 8.074219 241.929688 C 7.183594 238.992188 6.363281 236.035156 5.621094 233.058594 C 4.875 230.082031 4.203125 227.089844 3.601562 224.078125 C 3.003906 221.070312 2.480469 218.046875 2.03125 215.011719 C 1.578125 211.976562 1.203125 208.933594 0.902344 205.878906 C 0.601562 202.824219 0.375 199.765625 0.226562 196.699219 C 0.0742188 193.636719 0 190.570312 0 187.5 C 0 184.429688 0.0742188 181.363281 0.226562 178.300781 C 0.375 175.234375 0.601562 172.175781 0.902344 169.121094 C 1.203125 166.066406 1.578125 163.023438 2.03125 159.988281 C 2.480469 156.953125 3.003906 153.929688 3.601562 150.921875 C 4.203125 147.910156 4.875 144.917969 5.621094 141.941406 C 6.363281 138.964844 7.183594 136.007812 8.074219 133.070312 C 8.964844 130.136719 9.925781 127.222656 10.960938 124.332031 C 11.996094 121.445312 13.097656 118.582031 14.273438 115.746094 C 15.445312 112.910156 16.691406 110.105469 18.003906 107.332031 C 19.3125 104.558594 20.691406 101.820312 22.140625 99.113281 C 23.585938 96.40625 25.097656 93.738281 26.675781 91.105469 C 28.253906 88.472656 29.894531 85.882812 31.597656 83.332031 C 33.304688 80.777344 35.070312 78.269531 36.898438 75.804688 C 38.726562 73.339844 40.613281 70.921875 42.558594 68.550781 C 44.507812 66.179688 46.511719 63.855469 48.570312 61.582031 C 50.632812 59.308594 52.746094 57.085938 54.917969 54.917969 C 57.085938 52.746094 59.308594 50.632812 61.582031 48.570312 C 63.855469 46.511719 66.179688 44.507812 68.550781 42.558594 C 70.921875 40.613281 73.339844 38.726562 75.804688 36.898438 C 78.269531 35.070312 80.777344 33.304688 83.332031 31.597656 C 85.882812 29.894531 88.472656 28.253906 91.105469 26.675781 C 93.738281 25.097656 96.40625 23.585938 99.113281 22.140625 C 101.820312 20.691406 104.558594 19.3125 107.332031 18.003906 C 110.105469 16.691406 112.910156 15.445312 115.746094 14.273438 C 118.582031 13.097656 121.445312 11.996094 124.332031 10.960938 C 127.222656 9.925781 130.136719 8.964844 133.070312 8.074219 C 136.007812 7.183594 138.964844 6.363281 141.941406 5.617188 C 144.917969 4.875 147.910156 4.203125 150.921875 3.601562 C 153.929688 3.003906 156.953125 2.480469 159.988281 2.03125 C 163.023438 1.578125 166.066406 1.203125 169.121094 0.902344 C 172.175781 0.601562 175.234375 0.375 178.300781 0.226562 C 181.363281 0.0742188 184.429688 0 187.5 0 C 190.570312 0 193.636719 0.0742188 196.699219 0.226562 C 199.765625 0.375 202.824219 0.601562 205.878906 0.902344 C 208.933594 1.203125 211.976562 1.578125 215.011719 2.03125 C 218.046875 2.480469 221.070312 3.003906 224.078125 3.601562 C 227.089844 4.203125 230.082031 4.875 233.058594 5.617188 C 236.035156 6.363281 238.992188 7.183594 241.929688 8.074219 C 244.863281 8.964844 247.777344 9.925781 250.667969 10.960938 C 253.554688 11.996094 256.417969 13.097656 259.253906 14.273438 C 262.089844 15.445312 264.890625 16.691406 267.667969 18.003906 C 270.441406 19.3125 273.179688 20.691406 275.886719 22.140625 C 278.59375 23.585938 281.261719 25.097656 283.894531 26.675781 C 286.527344 28.253906 289.117188 29.894531 291.667969 31.597656 C 294.222656 33.304688 296.730469 35.070312 299.195312 36.898438 C 301.660156 38.726562 304.078125 40.613281 306.449219 42.558594 C 308.820312 44.507812 311.144531 46.511719 313.417969 48.570312 C 315.691406 50.632812 317.914062 52.746094 320.082031 54.917969 C 322.253906 57.085938 324.367188 59.308594 326.429688 61.582031 C 328.488281 63.855469 330.492188 66.179688 332.4375 68.550781 C 334.386719 70.921875 336.273438 73.339844 338.101562 75.804688 C 339.929688 78.269531 341.695312 80.777344 343.402344 83.332031 C 345.105469 85.882812 346.746094 88.472656 348.324219 91.105469 C 349.902344 93.738281 351.414062 96.40625 352.859375 99.113281 C 354.308594 101.820312 355.6875 104.558594 356.996094 107.332031 C 358.308594 110.105469 359.554688 112.910156 360.726562 115.746094 C 361.902344 118.582031 363.003906 121.445312 364.039062 124.332031 C 365.074219 127.222656 366.035156 130.136719 366.925781 133.070312 C 367.816406 136.007812 368.636719 138.964844 369.378906 141.941406 C 370.125 144.917969 370.796875 147.910156 371.398438 150.921875 C 371.996094 153.929688 372.519531 156.953125 372.96875 159.988281 C 373.421875 163.023438 373.796875 166.066406 374.097656 169.121094 C 374.398438 172.175781 374.625 175.234375 374.773438 178.300781 C 374.925781 181.363281 375 184.429688 375 187.5 Z M 375 187.5 " fill-opacity="1" fill-rule="nonzero"/><path fill="#fffe77" d="M 187.5 357.601562 C 185.699219 357.601562 183.898438 357.601562 182.175781 357.523438 L 182.398438 350.398438 C 188.175781 350.550781 194.101562 350.476562 199.800781 350.023438 L 200.324219 357.074219 C 196.050781 357.449219 191.773438 357.601562 187.5 357.601562 Z M 174.898438 357.148438 C 168.898438 356.699219 162.824219 355.949219 156.898438 354.824219 L 158.175781 347.851562 C 163.875 348.898438 169.648438 349.648438 175.425781 350.023438 Z M 207.523438 356.476562 L 206.699219 349.425781 C 212.476562 348.75 218.25 347.773438 223.875 346.5 L 225.449219 353.398438 C 219.601562 354.675781 213.523438 355.726562 207.523438 356.476562 Z M 149.773438 353.398438 C 143.925781 352.050781 138 350.398438 132.300781 348.449219 L 134.625 341.699219 C 140.101562 343.574219 145.726562 345.148438 151.351562 346.425781 Z M 232.5 351.601562 L 230.625 344.773438 C 236.175781 343.273438 241.726562 341.398438 247.125 339.300781 L 249.75 345.898438 C 244.125 348.074219 238.351562 350.023438 232.5 351.601562 Z M 125.398438 345.898438 C 119.773438 343.726562 114.226562 341.175781 108.824219 338.398438 L 112.125 332.101562 C 117.226562 334.800781 122.550781 337.199219 127.949219 339.300781 Z M 256.425781 343.050781 L 253.574219 336.523438 C 258.824219 334.199219 264.074219 331.5 269.101562 328.648438 L 272.699219 334.800781 C 267.375 337.875 261.976562 340.648438 256.425781 343.050781 Z M 102.523438 334.875 C 97.273438 331.875 92.175781 328.5 87.300781 324.976562 L 91.5 319.273438 C 96.148438 322.726562 101.101562 325.875 106.125 328.800781 Z M 278.851562 331.050781 L 275.023438 325.050781 C 279.898438 321.976562 284.699219 318.523438 289.199219 314.925781 L 293.625 320.476562 C 288.898438 324.226562 283.875 327.824219 278.851562 331.050781 Z M 81.523438 320.550781 C 76.800781 316.800781 72.226562 312.75 67.949219 308.476562 L 72.976562 303.449219 C 77.101562 307.5 81.449219 311.398438 86.023438 315 Z M 299.175781 315.824219 L 294.523438 310.5 C 298.875 306.675781 303.074219 302.625 307.050781 298.425781 L 312.226562 303.226562 C 308.101562 307.648438 303.75 311.851562 299.175781 315.824219 Z M 62.851562 303.300781 C 58.726562 298.875 54.824219 294.226562 51.226562 289.351562 L 56.925781 285.074219 C 60.375 289.726562 64.125 294.226562 68.101562 298.425781 Z M 317.023438 297.75 L 311.625 293.175781 C 315.375 288.75 318.976562 284.101562 322.199219 279.375 L 328.050781 283.351562 C 324.675781 288.300781 321 293.175781 317.023438 297.75 Z M 47.023438 283.425781 C 43.648438 278.398438 40.425781 273.226562 37.574219 267.898438 L 43.875 264.523438 C 46.574219 269.625 49.648438 274.648438 52.949219 279.375 Z M 332.023438 277.273438 L 326.023438 273.523438 C 329.101562 268.574219 331.875 263.476562 334.425781 258.300781 L 340.800781 261.375 C 338.175781 266.773438 335.25 272.101562 332.023438 277.273438 Z M 34.273438 261.449219 C 31.648438 255.976562 29.25 250.351562 27.226562 244.648438 L 33.898438 242.25 C 35.851562 247.648438 38.101562 253.125 40.648438 258.300781 Z M 343.800781 254.699219 L 337.273438 251.925781 C 339.601562 246.601562 341.550781 241.125 343.273438 235.574219 L 350.101562 237.675781 C 348.300781 243.375 346.199219 249.148438 343.800781 254.699219 Z M 24.976562 237.824219 C 23.175781 232.050781 21.675781 226.125 20.550781 220.199219 L 27.523438 218.851562 C 28.648438 224.550781 30.074219 230.175781 31.726562 235.726562 Z M 352.125 230.625 L 345.226562 228.824219 C 346.726562 223.199219 347.851562 217.5 348.75 211.800781 L 355.800781 212.851562 C 354.824219 218.851562 353.625 224.773438 352.125 230.625 Z M 19.273438 213 C 18.375 207.074219 17.773438 200.925781 17.550781 194.925781 L 24.675781 194.625 C 24.898438 200.398438 25.5 206.25 26.324219 211.949219 Z M 356.699219 205.648438 L 349.648438 204.898438 C 350.25 199.199219 350.550781 193.351562 350.550781 187.5 L 350.550781 187.125 L 357.675781 187.125 L 357.675781 187.5 C 357.601562 193.574219 357.300781 199.648438 356.699219 205.648438 Z M 24.449219 187.648438 L 17.324219 187.648438 L 17.324219 187.5 C 17.324219 181.5 17.625 175.5 18.226562 169.574219 L 25.273438 170.324219 C 24.675781 176.023438 24.375 181.800781 24.375 187.5 Z M 350.324219 180.148438 C 350.101562 174.375 349.5 168.523438 348.675781 162.824219 L 355.726562 161.773438 C 356.625 167.699219 357.226562 173.773438 357.449219 179.851562 Z M 26.25 163.351562 L 19.199219 162.300781 C 20.101562 156.300781 21.300781 150.375 22.800781 144.523438 L 29.699219 146.324219 C 28.273438 151.949219 27.074219 157.648438 26.25 163.351562 Z M 347.476562 156 C 346.351562 150.300781 344.925781 144.675781 343.199219 139.125 L 350.023438 137.023438 C 351.824219 142.800781 353.324219 148.726562 354.449219 154.648438 Z M 31.648438 139.648438 L 24.824219 137.550781 C 26.625 131.773438 28.726562 126 31.050781 120.449219 L 37.574219 123.226562 C 35.324219 128.625 33.300781 134.101562 31.648438 139.648438 Z M 341.023438 132.523438 C 339.074219 127.050781 336.824219 121.726562 334.273438 116.476562 L 340.648438 113.398438 C 343.273438 118.800781 345.675781 124.5 347.699219 130.125 Z M 40.5 116.925781 L 34.125 113.851562 C 36.75 108.449219 39.675781 103.050781 42.898438 97.949219 L 48.976562 101.699219 C 45.824219 106.574219 43.050781 111.75 40.5 116.925781 Z M 331.125 110.25 C 328.351562 105.148438 325.351562 100.199219 322.050781 95.398438 L 327.898438 91.351562 C 331.351562 96.300781 334.5 101.550781 337.351562 106.875 Z M 52.726562 95.851562 L 46.875 91.875 C 50.25 86.851562 54 82.050781 57.898438 77.398438 L 63.300781 81.976562 C 59.476562 86.398438 55.949219 91.050781 52.726562 95.851562 Z M 318 89.773438 C 314.550781 85.125 310.800781 80.699219 306.824219 76.425781 L 312 71.550781 C 316.125 75.976562 320.023438 80.625 323.625 85.5 Z M 67.875 76.726562 L 62.625 71.925781 C 66.75 67.5 71.175781 63.226562 75.675781 59.25 L 80.324219 64.574219 C 75.976562 68.398438 71.773438 72.523438 67.875 76.726562 Z M 301.949219 71.398438 C 297.824219 67.351562 293.476562 63.449219 288.898438 59.851562 L 293.324219 54.300781 C 298.050781 58.050781 302.625 62.101562 306.898438 66.375 Z M 85.726562 60.148438 L 81.300781 54.601562 C 86.023438 50.851562 90.976562 47.25 96.074219 44.023438 L 99.898438 50.023438 C 94.949219 53.101562 90.226562 56.550781 85.726562 60.148438 Z M 283.351562 55.648438 C 278.699219 52.273438 273.75 49.050781 268.726562 46.199219 L 272.25 40.050781 C 277.5 43.050781 282.601562 46.425781 287.476562 49.949219 Z M 105.824219 46.425781 L 102.226562 40.273438 C 107.476562 37.273438 112.875 34.425781 118.425781 32.023438 L 121.351562 38.550781 C 116.023438 40.875 110.773438 43.5 105.824219 46.425781 Z M 262.648438 42.824219 C 257.476562 40.125 252.148438 37.726562 246.824219 35.625 L 249.375 29.023438 C 255 31.199219 260.550781 33.75 265.949219 36.523438 Z M 127.726562 35.773438 L 125.101562 29.175781 C 130.726562 26.925781 136.5 25.050781 142.351562 23.398438 L 144.226562 30.226562 C 138.601562 31.800781 133.050781 33.675781 127.726562 35.773438 Z M 240.226562 33.226562 C 234.75 31.351562 229.125 29.773438 223.5 28.5 L 225.074219 21.601562 C 231 22.949219 236.851562 24.601562 242.550781 26.550781 Z M 150.976562 28.574219 L 149.398438 21.675781 C 155.25 20.324219 161.324219 19.273438 167.324219 18.601562 L 168.148438 25.648438 C 162.375 26.324219 156.601562 27.300781 150.976562 28.574219 Z M 216.675781 27.074219 C 210.976562 26.023438 205.199219 25.351562 199.425781 24.898438 L 199.949219 17.773438 C 205.949219 18.226562 212.023438 18.976562 217.949219 20.023438 Z M 175.050781 24.976562 L 174.523438 17.851562 C 180.523438 17.398438 186.675781 17.25 192.675781 17.476562 L 192.449219 24.601562 C 186.675781 24.375 180.824219 24.523438 175.050781 24.976562 Z M 175.050781 24.976562 " fill-opacity="1" fill-rule="nonzero"/><g clip-path="url(#88512d1730)"><g clip-path="url(#b41b3c3861)"><g clip-path="url(#ef30586cd9)"><g clip-path="url(#ed4fe7fda4)"><path fill="#fffe77" d="M 113.339844 289.691406 C 105.25 302.707031 105.347656 303.179688 117.902344 311.964844 C 104.886719 303.875 104.417969 303.972656 95.632812 316.527344 C 103.71875 303.511719 103.621094 303.042969 91.066406 294.253906 C 104.082031 302.34375 104.554688 302.246094 113.339844 289.691406 " fill-opacity="1" fill-rule="nonzero"/></g></g></g></g><g clip-path="url(#d63ba2d1b5)"><g clip-path="url(#765450e185)"><g clip-path="url(#0fec33d7a9)"><path fill="#fffe77" d="M 115.039062 313.328125 C 112.707031 317.082031 112.734375 317.214844 116.355469 319.75 C 112.601562 317.417969 112.464844 317.445312 109.933594 321.066406 C 112.265625 317.3125 112.238281 317.175781 108.617188 314.644531 C 112.371094 316.976562 112.503906 316.949219 115.039062 313.328125 " fill-opacity="1" fill-rule="nonzero"/></g></g></g><g clip-path="url(#4079eaa44c)"><g clip-path="url(#6eeef01e66)"><g clip-path="url(#41b9087279)"><g clip-path="url(#9c4890b88c)"><path fill="#fffe77" d="M 97.855469 293.140625 C 101.398438 287.4375 101.359375 287.234375 95.855469 283.382812 C 101.558594 286.925781 101.765625 286.886719 105.617188 281.382812 C 102.070312 287.085938 102.113281 287.292969 107.613281 291.144531 C 101.910156 287.597656 101.707031 287.640625 97.855469 293.140625 " fill-opacity="1" fill-rule="nonzero"/></g></g></g></g><g clip-path="url(#08084b2c6d)"><g clip-path="url(#018f1395e2)"><g clip-path="url(#5e995653ae)"><g clip-path="url(#9ba9008363)"><path fill="#fffe77" d="M 262.042969 289.648438 C 269.476562 303.050781 269.355469 303.515625 256.378906 311.667969 C 269.78125 304.234375 270.246094 304.355469 278.398438 317.332031 C 270.964844 303.929688 271.085938 303.464844 284.0625 295.3125 C 270.660156 302.746094 270.195312 302.625 262.042969 289.648438 " fill-opacity="1" fill-rule="nonzero"/></g></g></g></g><g clip-path="url(#bf7dffd751)"><g clip-path="url(#85308c1442)"><g clip-path="url(#94eb603125)"><path fill="#fffe77" d="M 259.171875 313.171875 C 261.316406 317.035156 261.28125 317.167969 257.539062 319.519531 C 261.40625 317.378906 261.539062 317.410156 263.890625 321.152344 C 261.746094 317.289062 261.78125 317.15625 265.523438 314.804688 C 261.65625 316.945312 261.523438 316.914062 259.171875 313.171875 " fill-opacity="1" fill-rule="nonzero"/></g></g></g><g clip-path="url(#3412f83d38)"><g clip-path="url(#023d2edae5)"><g clip-path="url(#52eaf908b6)"><g clip-path="url(#12709ac929)"><path fill="#fffe77" d="M 277.335938 293.863281 C 274.082031 287.992188 274.132812 287.789062 279.816406 284.214844 C 273.945312 287.472656 273.742188 287.421875 270.171875 281.734375 C 273.425781 287.605469 273.375 287.808594 267.691406 291.382812 C 273.5625 288.125 273.765625 288.179688 277.335938 293.863281 " fill-opacity="1" fill-rule="nonzero"/></g></g></g></g><g fill="#5e376d" fill-opacity="1"><g transform="translate(73.702976, 204.23988)"><g><path d="M -13.953125 -0.421875 C -16.859375 -0.234375 -19.425781 -0.640625 -21.65625 -1.640625 C -23.882812 -2.640625 -25.664062 -4.21875 -27 -6.375 C -28.34375 -8.53125 -29.117188 -11.226562 -29.328125 -14.46875 C -29.546875 -17.738281 -29.132812 -20.523438 -28.09375 -22.828125 C -27.0625 -25.140625 -25.503906 -26.941406 -23.421875 -28.234375 C -21.335938 -29.535156 -18.84375 -30.28125 -15.9375 -30.46875 C -13.03125 -30.695312 -10.46875 -30.296875 -8.25 -29.265625 C -6.03125 -28.242188 -4.25 -26.65625 -2.90625 -24.5 C -1.570312 -22.351562 -0.796875 -19.644531 -0.578125 -16.375 C -0.367188 -13.132812 -0.78125 -10.359375 -1.8125 -8.046875 C -2.851562 -5.734375 -4.410156 -3.929688 -6.484375 -2.640625 C -8.554688 -1.359375 -11.046875 -0.617188 -13.953125 -0.421875 Z M -26.859375 -13.203125 C -26.617188 -11.859375 -25.914062 -10.882812 -24.75 -10.28125 C -23.582031 -9.675781 -22.078125 -9.378906 -20.234375 -9.390625 C -18.390625 -9.410156 -16.285156 -9.632812 -13.921875 -10.0625 C -11.578125 -10.5 -9.546875 -11.054688 -7.828125 -11.734375 C -6.109375 -12.410156 -4.820312 -13.238281 -3.96875 -14.21875 C -3.125 -15.207031 -2.820312 -16.367188 -3.0625 -17.703125 C -3.320312 -19.078125 -4.03125 -20.050781 -5.1875 -20.625 C -6.34375 -21.207031 -7.84375 -21.492188 -9.6875 -21.484375 C -11.53125 -21.472656 -13.613281 -21.25 -15.9375 -20.8125 C -18.300781 -20.375 -20.34375 -19.816406 -22.0625 -19.140625 C -23.789062 -18.460938 -25.085938 -17.640625 -25.953125 -16.671875 C -26.828125 -15.710938 -27.128906 -14.554688 -26.859375 -13.203125 Z M -26.859375 -13.203125 "/></g></g></g><g fill="#5e376d" fill-opacity="1"><g transform="translate(71.682241, 174.451295)"><g><path d="M -14.859375 -3.4375 C -14.929688 -3.175781 -15.097656 -3 -15.359375 -2.90625 C -15.628906 -2.8125 -15.894531 -2.8125 -16.15625 -2.90625 C -16.425781 -3.007812 -16.601562 -3.195312 -16.6875 -3.46875 C -16.988281 -4.269531 -17.160156 -5.257812 -17.203125 -6.4375 C -17.253906 -7.613281 -17.191406 -8.734375 -17.015625 -9.796875 C -16.847656 -10.785156 -16.625 -11.554688 -16.34375 -12.109375 C -16.070312 -12.671875 -15.640625 -13.039062 -15.046875 -13.21875 C -14.460938 -13.394531 -13.628906 -13.390625 -12.546875 -13.203125 L -5.78125 -12.015625 C -5.101562 -11.898438 -4.460938 -11.820312 -3.859375 -11.78125 C -3.265625 -11.75 -2.757812 -11.859375 -2.34375 -12.109375 C -1.925781 -12.367188 -1.65625 -12.851562 -1.53125 -13.5625 C -1.414062 -14.363281 -1.695312 -15.101562 -2.375 -15.78125 C -3.0625 -16.457031 -3.859375 -16.929688 -4.765625 -17.203125 L -10.125 -18.140625 L -11.09375 -18.296875 C -11.695312 -18.398438 -12.0625 -18.359375 -12.1875 -18.171875 C -12.3125 -17.984375 -12.429688 -17.640625 -12.546875 -17.140625 C -12.617188 -16.867188 -12.785156 -16.6875 -13.046875 -16.59375 C -13.316406 -16.5 -13.582031 -16.5 -13.84375 -16.59375 C -14.113281 -16.695312 -14.289062 -16.882812 -14.375 -17.15625 C -14.675781 -17.96875 -14.847656 -18.960938 -14.890625 -20.140625 C -14.941406 -21.316406 -14.878906 -22.429688 -14.703125 -23.484375 C -14.535156 -24.460938 -14.3125 -25.234375 -14.03125 -25.796875 C -13.757812 -26.367188 -13.332031 -26.734375 -12.75 -26.890625 C -12.164062 -27.054688 -11.332031 -27.046875 -10.25 -26.859375 L -8.765625 -26.609375 C -8.109375 -26.503906 -7.351562 -26.378906 -6.5 -26.234375 C -5.644531 -26.085938 -4.78125 -25.929688 -3.90625 -25.765625 C -3.039062 -25.609375 -2.25 -25.46875 -1.53125 -25.34375 C -0.8125 -25.21875 -0.257812 -25.125 0.125 -25.0625 C 1.332031 -24.863281 2.019531 -25.054688 2.1875 -25.640625 C 2.257812 -25.921875 2.210938 -26.195312 2.046875 -26.46875 C 1.890625 -26.75 1.859375 -27.015625 1.953125 -27.265625 C 2.035156 -27.472656 2.238281 -27.546875 2.5625 -27.484375 C 2.894531 -27.429688 3.226562 -27.1875 3.5625 -26.75 C 3.894531 -26.320312 4.132812 -25.660156 4.28125 -24.765625 C 4.425781 -23.878906 4.367188 -22.722656 4.109375 -21.296875 C 3.835938 -19.859375 3.316406 -18.675781 2.546875 -17.75 C 1.773438 -16.820312 0.789062 -16.390625 -0.40625 -16.453125 C 0.582031 -15.566406 1.269531 -14.460938 1.65625 -13.140625 C 2.039062 -11.828125 2.148438 -10.503906 1.984375 -9.171875 C 1.585938 -6.734375 0.816406 -5.039062 -0.328125 -4.09375 C -1.472656 -3.144531 -3.039062 -2.835938 -5.03125 -3.171875 L -13.40625 -4.59375 C -14.007812 -4.695312 -14.375 -4.65625 -14.5 -4.46875 C -14.625 -4.28125 -14.742188 -3.9375 -14.859375 -3.4375 Z M -14.859375 -3.4375 "/></g></g></g><g fill="#5e376d" fill-opacity="1"><g transform="translate(75.923224, 148.938616)"><g><path d="M -13.65625 -6.34375 C -13.789062 -6.09375 -13.988281 -5.953125 -14.25 -5.921875 C -14.519531 -5.890625 -14.773438 -5.953125 -15.015625 -6.109375 C -15.265625 -6.265625 -15.40625 -6.476562 -15.4375 -6.75 C -15.601562 -7.75 -15.601562 -8.847656 -15.4375 -10.046875 C -15.269531 -11.253906 -14.984375 -12.367188 -14.578125 -13.390625 C -14.304688 -14.109375 -14.003906 -14.707031 -13.671875 -15.1875 C -13.347656 -15.675781 -12.925781 -16.003906 -12.40625 -16.171875 C -11.894531 -16.335938 -11.210938 -16.28125 -10.359375 -16 C -10.867188 -16.65625 -11.253906 -17.4375 -11.515625 -18.34375 C -11.785156 -19.257812 -11.769531 -20.300781 -11.46875 -21.46875 C -11.050781 -23.1875 -10.394531 -24.570312 -9.5 -25.625 C -8.613281 -26.6875 -7.632812 -27.398438 -6.5625 -27.765625 C -5.488281 -28.140625 -4.46875 -28.117188 -3.5 -27.703125 C -2.507812 -27.296875 -1.816406 -26.585938 -1.421875 -25.578125 C -1.023438 -24.578125 -1.195312 -23.335938 -1.9375 -21.859375 C -2.320312 -21.085938 -2.753906 -20.5625 -3.234375 -20.28125 C -3.710938 -20 -4.207031 -19.890625 -4.71875 -19.953125 C -5.226562 -20.015625 -5.726562 -20.128906 -6.21875 -20.296875 C -6.71875 -20.472656 -7.179688 -20.640625 -7.609375 -20.796875 C -8.046875 -20.953125 -8.425781 -21 -8.75 -20.9375 C -9.082031 -20.882812 -9.332031 -20.597656 -9.5 -20.078125 C -9.71875 -19.484375 -9.703125 -18.910156 -9.453125 -18.359375 C -9.210938 -17.816406 -8.835938 -17.3125 -8.328125 -16.84375 C -7.828125 -16.382812 -7.273438 -15.984375 -6.671875 -15.640625 C -6.078125 -15.304688 -5.535156 -15.039062 -5.046875 -14.84375 L 0.84375 -12.546875 C 1.15625 -12.429688 1.484375 -12.40625 1.828125 -12.46875 C 2.171875 -12.539062 2.488281 -12.671875 2.78125 -12.859375 C 2.882812 -12.960938 2.988281 -13.046875 3.09375 -13.109375 C 3.207031 -13.179688 3.3125 -13.25 3.40625 -13.3125 C 3.769531 -13.5625 4.125 -13.539062 4.46875 -13.25 C 4.820312 -12.96875 4.925781 -12.640625 4.78125 -12.265625 L 0.796875 -2.03125 C 0.648438 -1.675781 0.351562 -1.507812 -0.09375 -1.53125 C -0.539062 -1.5625 -0.820312 -1.773438 -0.9375 -2.171875 C -0.945312 -2.316406 -0.960938 -2.460938 -0.984375 -2.609375 C -1.015625 -2.753906 -1.046875 -2.898438 -1.078125 -3.046875 C -1.140625 -3.816406 -1.53125 -4.335938 -2.25 -4.609375 L -12.140625 -8.46875 C -12.421875 -8.582031 -12.640625 -8.578125 -12.796875 -8.453125 C -12.960938 -8.335938 -13.09375 -8.148438 -13.1875 -7.890625 C -13.28125 -7.648438 -13.359375 -7.390625 -13.421875 -7.109375 C -13.484375 -6.835938 -13.5625 -6.582031 -13.65625 -6.34375 Z M -13.65625 -6.34375 "/></g></g></g><g fill="#5e376d" fill-opacity="1"><g transform="translate(84.595118, 127.492292)"><g/></g></g><g fill="#5e376d" fill-opacity="1"><g transform="translate(89.516693, 116.978182)"><g><path d="M -9.84375 -9.890625 C -12.15625 -11.679688 -13.769531 -13.710938 -14.6875 -15.984375 C -15.601562 -18.253906 -15.789062 -20.648438 -15.25 -23.171875 C -14.707031 -25.691406 -13.394531 -28.203125 -11.3125 -30.703125 C -9.082031 -33.398438 -6.816406 -35.238281 -4.515625 -36.21875 C -2.210938 -37.195312 -0.078125 -37.332031 1.890625 -36.625 C 2.472656 -36.445312 3.039062 -36.128906 3.59375 -35.671875 C 4.144531 -35.210938 4.59375 -34.675781 4.9375 -34.0625 C 5.28125 -33.445312 5.4375 -32.765625 5.40625 -32.015625 C 5.375 -31.265625 5.070312 -30.476562 4.5 -29.65625 C 3.851562 -28.757812 3.109375 -28.078125 2.265625 -27.609375 C 1.429688 -27.140625 0.5625 -26.960938 -0.34375 -27.078125 C -1.25 -27.203125 -2.140625 -27.679688 -3.015625 -28.515625 C -4.160156 -29.617188 -5.195312 -30.25 -6.125 -30.40625 C -7.0625 -30.5625 -7.882812 -30.410156 -8.59375 -29.953125 C -9.300781 -29.503906 -9.910156 -28.875 -10.421875 -28.0625 C -11.171875 -26.925781 -11.320312 -25.742188 -10.875 -24.515625 C -10.425781 -23.285156 -9.535156 -22.03125 -8.203125 -20.75 C -6.867188 -19.476562 -5.195312 -18.191406 -3.1875 -16.890625 C -2.070312 -16.160156 -0.910156 -15.550781 0.296875 -15.0625 C 1.515625 -14.582031 2.710938 -14.300781 3.890625 -14.21875 C 5.066406 -14.132812 6.207031 -14.320312 7.3125 -14.78125 C 8.414062 -15.238281 9.453125 -16.050781 10.421875 -17.21875 C 11.660156 -18.71875 12.234375 -20.40625 12.140625 -22.28125 C 12.054688 -24.164062 11.269531 -25.941406 9.78125 -27.609375 C 9.414062 -28.015625 9.109375 -28.46875 8.859375 -28.96875 C 8.617188 -29.46875 8.71875 -29.953125 9.15625 -30.421875 C 9.550781 -30.859375 9.992188 -30.96875 10.484375 -30.75 C 10.984375 -30.539062 11.453125 -30.207031 11.890625 -29.75 C 14.242188 -27.257812 15.328125 -24.539062 15.140625 -21.59375 C 14.960938 -18.644531 13.582031 -15.613281 11 -12.5 C 8.9375 -10.007812 6.710938 -8.289062 4.328125 -7.34375 C 1.941406 -6.40625 -0.457031 -6.171875 -2.875 -6.640625 C -5.300781 -7.109375 -7.625 -8.191406 -9.84375 -9.890625 Z M -9.84375 -9.890625 "/></g></g></g><g fill="#5e376d" fill-opacity="1"><g transform="translate(108.228191, 94.718053)"><g><path d="M -5.203125 -7.3125 C -7.128906 -9.75 -7.835938 -12.203125 -7.328125 -14.671875 C -6.816406 -17.140625 -5.316406 -19.363281 -2.828125 -21.34375 C -0.328125 -23.320312 2.15625 -24.300781 4.625 -24.28125 C 7.101562 -24.269531 9.351562 -22.988281 11.375 -20.4375 C 13.382812 -17.894531 14.109375 -15.414062 13.546875 -13 C 12.992188 -10.59375 11.46875 -8.398438 8.96875 -6.421875 C 6.476562 -4.441406 3.972656 -3.488281 1.453125 -3.5625 C -1.066406 -3.632812 -3.285156 -4.882812 -5.203125 -7.3125 Z M -2.421875 -18.828125 C -2.804688 -18.390625 -2.929688 -17.910156 -2.796875 -17.390625 C -2.660156 -16.878906 -2.222656 -16.234375 -1.484375 -15.453125 C -0.753906 -14.671875 0.304688 -13.640625 1.703125 -12.359375 C 3.097656 -11.078125 4.226562 -10.109375 5.09375 -9.453125 C 5.957031 -8.804688 6.65625 -8.441406 7.1875 -8.359375 C 7.726562 -8.273438 8.1875 -8.453125 8.5625 -8.890625 C 8.976562 -9.328125 9.109375 -9.804688 8.953125 -10.328125 C 8.796875 -10.847656 8.351562 -11.503906 7.625 -12.296875 C 6.894531 -13.085938 5.832031 -14.125 4.4375 -15.40625 C 3.03125 -16.675781 1.894531 -17.632812 1.03125 -18.28125 C 0.164062 -18.925781 -0.523438 -19.285156 -1.046875 -19.359375 C -1.566406 -19.441406 -2.023438 -19.265625 -2.421875 -18.828125 Z M -2.421875 -18.828125 "/></g></g></g><g fill="#5e376d" fill-opacity="1"><g transform="translate(123.229032, 80.950438)"><g><path d="M -5.265625 -14.109375 C -5.546875 -14.023438 -5.789062 -14.066406 -6 -14.234375 C -6.21875 -14.398438 -6.359375 -14.617188 -6.421875 -14.890625 C -6.492188 -15.171875 -6.441406 -15.425781 -6.265625 -15.65625 C -5.671875 -16.46875 -4.820312 -17.273438 -3.71875 -18.078125 C -2.613281 -18.890625 -1.484375 -19.554688 -0.328125 -20.078125 C 0.554688 -20.472656 1.3125 -20.71875 1.9375 -20.8125 C 2.5625 -20.90625 3.117188 -20.773438 3.609375 -20.421875 C 4.109375 -20.066406 4.582031 -19.394531 5.03125 -18.40625 C 5.226562 -19.726562 5.71875 -20.9375 6.5 -22.03125 C 7.289062 -23.125 8.304688 -23.960938 9.546875 -24.546875 C 11.398438 -25.421875 12.945312 -25.785156 14.1875 -25.640625 C 15.425781 -25.503906 16.460938 -24.84375 17.296875 -23.65625 C 17.453125 -25.007812 17.925781 -26.265625 18.71875 -27.421875 C 19.519531 -28.578125 20.5625 -29.453125 21.84375 -30.046875 C 24.03125 -31.085938 25.804688 -31.398438 27.171875 -30.984375 C 28.535156 -30.578125 29.65625 -29.40625 30.53125 -27.46875 L 33.984375 -19.765625 L 34.015625 -19.78125 L 34.15625 -19.4375 C 34.445312 -18.800781 34.972656 -18.414062 35.734375 -18.28125 C 35.867188 -18.289062 36.003906 -18.28125 36.140625 -18.25 C 36.285156 -18.226562 36.421875 -18.210938 36.546875 -18.203125 C 36.941406 -18.117188 37.160156 -17.847656 37.203125 -17.390625 C 37.253906 -16.941406 37.09375 -16.628906 36.71875 -16.453125 L 30.984375 -13.890625 C 30.117188 -13.503906 29.390625 -13.375 28.796875 -13.5 C 28.210938 -13.632812 27.710938 -13.925781 27.296875 -14.375 C 26.878906 -14.832031 26.53125 -15.347656 26.25 -15.921875 L 23.734375 -21.609375 C 23.453125 -22.234375 23.160156 -22.859375 22.859375 -23.484375 C 22.566406 -24.117188 22.226562 -24.601562 21.84375 -24.9375 C 21.457031 -25.28125 20.984375 -25.316406 20.421875 -25.046875 C 19.910156 -24.816406 19.523438 -24.394531 19.265625 -23.78125 C 19.003906 -23.164062 18.878906 -22.492188 18.890625 -21.765625 C 18.898438 -21.035156 19.019531 -20.351562 19.25 -19.71875 L 21.84375 -13.921875 C 22.144531 -13.265625 22.679688 -12.882812 23.453125 -12.78125 C 23.585938 -12.789062 23.71875 -12.78125 23.84375 -12.75 C 23.96875 -12.71875 24.09375 -12.691406 24.21875 -12.671875 C 24.613281 -12.585938 24.84375 -12.320312 24.90625 -11.875 C 24.96875 -11.425781 24.8125 -11.117188 24.4375 -10.953125 L 18.65625 -8.359375 C 17.8125 -7.984375 17.085938 -7.859375 16.484375 -7.984375 C 15.890625 -8.109375 15.390625 -8.398438 14.984375 -8.859375 C 14.585938 -9.328125 14.25 -9.847656 13.96875 -10.421875 L 11.421875 -16.09375 C 11.160156 -16.726562 10.875 -17.359375 10.5625 -17.984375 C 10.25 -18.609375 9.898438 -19.085938 9.515625 -19.421875 C 9.128906 -19.765625 8.65625 -19.796875 8.09375 -19.515625 C 7.5625 -19.285156 7.171875 -18.832031 6.921875 -18.15625 C 6.679688 -17.476562 6.578125 -16.75 6.609375 -15.96875 C 6.640625 -15.1875 6.796875 -14.476562 7.078125 -13.84375 L 9.515625 -8.390625 C 9.660156 -8.085938 9.878906 -7.84375 10.171875 -7.65625 C 10.472656 -7.46875 10.796875 -7.335938 11.140625 -7.265625 C 11.265625 -7.265625 11.390625 -7.25 11.515625 -7.21875 C 11.648438 -7.195312 11.773438 -7.171875 11.890625 -7.140625 C 12.316406 -7.078125 12.550781 -6.816406 12.59375 -6.359375 C 12.644531 -5.910156 12.484375 -5.597656 12.109375 -5.421875 L 2 -0.890625 C 1.644531 -0.734375 1.3125 -0.820312 1 -1.15625 C 0.695312 -1.5 0.65625 -1.847656 0.875 -2.203125 C 0.957031 -2.316406 1.039062 -2.4375 1.125 -2.5625 C 1.207031 -2.6875 1.289062 -2.804688 1.375 -2.921875 C 1.863281 -3.503906 1.945312 -4.148438 1.625 -4.859375 L -2.71875 -14.546875 C -2.84375 -14.828125 -3 -14.976562 -3.1875 -15 C -3.382812 -15.03125 -3.609375 -14.988281 -3.859375 -14.875 C -4.085938 -14.769531 -4.320312 -14.640625 -4.5625 -14.484375 C -4.800781 -14.335938 -5.035156 -14.210938 -5.265625 -14.109375 Z M -5.265625 -14.109375 "/></g></g></g><g fill="#5e376d" fill-opacity="1"><g transform="translate(157.936106, 64.813909)"><g><path d="M -0.5625 -15.046875 C -0.84375 -15.046875 -1.054688 -15.160156 -1.203125 -15.390625 C -1.359375 -15.617188 -1.421875 -15.875 -1.390625 -16.15625 C -1.367188 -16.445312 -1.242188 -16.671875 -1.015625 -16.828125 C -0.203125 -17.421875 0.851562 -17.925781 2.15625 -18.34375 C 3.46875 -18.757812 4.75 -19.03125 6 -19.15625 C 6.96875 -19.25 7.765625 -19.242188 8.390625 -19.140625 C 9.015625 -19.035156 9.503906 -18.738281 9.859375 -18.25 C 10.222656 -17.757812 10.460938 -16.96875 10.578125 -15.875 C 11.179688 -17.070312 12.023438 -18.066406 13.109375 -18.859375 C 14.203125 -19.648438 15.429688 -20.125 16.796875 -20.28125 C 18.828125 -20.539062 20.410156 -20.40625 21.546875 -19.875 C 22.679688 -19.34375 23.460938 -18.378906 23.890625 -16.984375 C 24.441406 -18.234375 25.28125 -19.28125 26.40625 -20.125 C 27.53125 -20.96875 28.789062 -21.472656 30.1875 -21.640625 C 32.59375 -21.929688 34.378906 -21.664062 35.546875 -20.84375 C 36.710938 -20.03125 37.40625 -18.566406 37.625 -16.453125 L 38.46875 -8.0625 L 38.5 -8.0625 L 38.546875 -7.6875 C 38.609375 -6.988281 38.984375 -6.457031 39.671875 -6.09375 C 39.804688 -6.0625 39.9375 -6.007812 40.0625 -5.9375 C 40.1875 -5.875 40.300781 -5.8125 40.40625 -5.75 C 40.769531 -5.550781 40.898438 -5.226562 40.796875 -4.78125 C 40.703125 -4.332031 40.445312 -4.085938 40.03125 -4.046875 L 33.78125 -3.421875 C 32.832031 -3.328125 32.097656 -3.429688 31.578125 -3.734375 C 31.066406 -4.046875 30.6875 -4.484375 30.4375 -5.046875 C 30.1875 -5.617188 30.015625 -6.21875 29.921875 -6.84375 L 29.328125 -13.046875 C 29.265625 -13.722656 29.1875 -14.40625 29.09375 -15.09375 C 29.007812 -15.78125 28.835938 -16.34375 28.578125 -16.78125 C 28.316406 -17.226562 27.890625 -17.410156 27.296875 -17.328125 C 26.734375 -17.273438 26.226562 -16.992188 25.78125 -16.484375 C 25.332031 -15.984375 25 -15.382812 24.78125 -14.6875 C 24.5625 -14 24.460938 -13.320312 24.484375 -12.65625 L 25.125 -6.328125 C 25.195312 -5.609375 25.582031 -5.082031 26.28125 -4.75 C 26.40625 -4.707031 26.523438 -4.648438 26.640625 -4.578125 C 26.753906 -4.515625 26.863281 -4.453125 26.96875 -4.390625 C 27.320312 -4.191406 27.457031 -3.867188 27.375 -3.421875 C 27.289062 -2.984375 27.046875 -2.742188 26.640625 -2.703125 L 20.34375 -2.0625 C 19.425781 -1.96875 18.695312 -2.070312 18.15625 -2.375 C 17.625 -2.6875 17.238281 -3.125 17 -3.6875 C 16.769531 -4.257812 16.613281 -4.863281 16.53125 -5.5 L 15.890625 -11.6875 C 15.847656 -12.363281 15.773438 -13.046875 15.671875 -13.734375 C 15.578125 -14.421875 15.398438 -14.984375 15.140625 -15.421875 C 14.878906 -15.867188 14.445312 -16.050781 13.84375 -15.96875 C 13.257812 -15.90625 12.742188 -15.597656 12.296875 -15.046875 C 11.847656 -14.492188 11.515625 -13.835938 11.296875 -13.078125 C 11.085938 -12.316406 11.015625 -11.597656 11.078125 -10.921875 L 11.6875 -4.96875 C 11.71875 -4.632812 11.84375 -4.328125 12.0625 -4.046875 C 12.289062 -3.773438 12.554688 -3.554688 12.859375 -3.390625 C 12.984375 -3.347656 13.101562 -3.289062 13.21875 -3.21875 C 13.332031 -3.15625 13.4375 -3.09375 13.53125 -3.03125 C 13.914062 -2.832031 14.054688 -2.507812 13.953125 -2.0625 C 13.859375 -1.625 13.609375 -1.382812 13.203125 -1.34375 L 2.171875 -0.21875 C 1.785156 -0.175781 1.503906 -0.363281 1.328125 -0.78125 C 1.148438 -1.207031 1.207031 -1.550781 1.5 -1.8125 C 1.625 -1.894531 1.742188 -1.984375 1.859375 -2.078125 C 1.984375 -2.171875 2.101562 -2.257812 2.21875 -2.34375 C 2.875 -2.738281 3.164062 -3.320312 3.09375 -4.09375 L 2.015625 -14.65625 C 1.984375 -14.957031 1.878906 -15.148438 1.703125 -15.234375 C 1.523438 -15.328125 1.296875 -15.363281 1.015625 -15.34375 C 0.765625 -15.3125 0.503906 -15.257812 0.234375 -15.1875 C -0.0351562 -15.125 -0.300781 -15.078125 -0.5625 -15.046875 Z M -0.5625 -15.046875 "/></g></g></g><g fill="#5e376d" fill-opacity="1"><g transform="translate(196.558618, 61.724961)"><g><path d="M 1.765625 -8.8125 C 2.222656 -11.882812 3.523438 -14.078125 5.671875 -15.390625 C 7.828125 -16.703125 10.472656 -17.125 13.609375 -16.65625 C 16.765625 -16.195312 19.179688 -15.054688 20.859375 -13.234375 C 22.546875 -11.421875 23.148438 -8.910156 22.671875 -5.703125 C 22.203125 -2.492188 20.894531 -0.269531 18.75 0.96875 C 16.613281 2.21875 13.96875 2.613281 10.8125 2.15625 C 7.675781 1.6875 5.269531 0.507812 3.59375 -1.375 C 1.925781 -3.269531 1.316406 -5.75 1.765625 -8.8125 Z M 12.0625 -14.65625 C 11.488281 -14.632812 11.054688 -14.398438 10.765625 -13.953125 C 10.484375 -13.503906 10.304688 -12.742188 10.234375 -11.671875 C 10.160156 -10.597656 10.144531 -9.109375 10.1875 -7.203125 C 10.207031 -5.316406 10.273438 -3.832031 10.390625 -2.75 C 10.503906 -1.675781 10.710938 -0.914062 11.015625 -0.46875 C 11.328125 -0.03125 11.773438 0.175781 12.359375 0.15625 C 12.953125 0.144531 13.382812 -0.0859375 13.65625 -0.546875 C 13.925781 -1.015625 14.101562 -1.78125 14.1875 -2.84375 C 14.269531 -3.914062 14.300781 -5.40625 14.28125 -7.3125 C 14.238281 -9.207031 14.15625 -10.691406 14.03125 -11.765625 C 13.90625 -12.835938 13.691406 -13.59375 13.390625 -14.03125 C 13.097656 -14.46875 12.65625 -14.675781 12.0625 -14.65625 Z M 12.0625 -14.65625 "/></g></g></g><g fill="#5e376d" fill-opacity="1"><g transform="translate(217.092803, 64.302904)"><g><path d="M 5.953125 -13.828125 C 5.703125 -13.960938 5.554688 -14.160156 5.515625 -14.421875 C 5.472656 -14.691406 5.523438 -14.945312 5.671875 -15.1875 C 5.828125 -15.4375 6.039062 -15.582031 6.3125 -15.625 C 7.3125 -15.8125 8.484375 -15.8125 9.828125 -15.625 C 11.179688 -15.445312 12.4375 -15.148438 13.59375 -14.734375 C 14.476562 -14.421875 15.179688 -14.085938 15.703125 -13.734375 C 16.234375 -13.378906 16.554688 -12.910156 16.671875 -12.328125 C 16.785156 -11.742188 16.65625 -10.9375 16.28125 -9.90625 C 17.320312 -10.675781 18.503906 -11.179688 19.828125 -11.421875 C 21.160156 -11.671875 22.460938 -11.578125 23.734375 -11.140625 C 26.046875 -10.378906 27.550781 -9.375 28.25 -8.125 C 28.945312 -6.882812 28.9375 -5.265625 28.21875 -3.265625 L 25.375 4.671875 L 25.25 5.03125 C 25.007812 5.707031 25.132812 6.347656 25.625 6.953125 C 25.71875 7.035156 25.800781 7.132812 25.875 7.25 C 25.945312 7.363281 26.023438 7.472656 26.109375 7.578125 C 26.335938 7.910156 26.316406 8.257812 26.046875 8.625 C 25.773438 8.988281 25.445312 9.101562 25.0625 8.96875 L 19.109375 6.828125 C 18.234375 6.515625 17.625 6.101562 17.28125 5.59375 C 16.9375 5.09375 16.773438 4.535156 16.796875 3.921875 C 16.828125 3.316406 16.941406 2.707031 17.140625 2.09375 L 19.265625 -3.75 C 19.492188 -4.394531 19.71875 -5.046875 19.9375 -5.703125 C 20.164062 -6.359375 20.25 -6.945312 20.1875 -7.46875 C 20.132812 -7.988281 19.8125 -8.34375 19.21875 -8.53125 C 18.6875 -8.71875 18.128906 -8.675781 17.546875 -8.40625 C 16.960938 -8.144531 16.425781 -7.757812 15.9375 -7.25 C 15.445312 -6.75 15.050781 -6.195312 14.75 -5.59375 L 12.5625 0.5 C 12.445312 0.8125 12.429688 1.140625 12.515625 1.484375 C 12.597656 1.828125 12.738281 2.140625 12.9375 2.421875 C 13.050781 2.515625 13.140625 2.613281 13.203125 2.71875 C 13.273438 2.832031 13.347656 2.9375 13.421875 3.03125 C 13.671875 3.382812 13.65625 3.738281 13.375 4.09375 C 13.101562 4.457031 12.773438 4.570312 12.390625 4.4375 L 2.0625 0.734375 C 1.695312 0.609375 1.519531 0.320312 1.53125 -0.125 C 1.550781 -0.582031 1.757812 -0.875 2.15625 -1 C 2.289062 -1.019531 2.429688 -1.046875 2.578125 -1.078125 C 2.734375 -1.109375 2.878906 -1.132812 3.015625 -1.15625 C 3.773438 -1.238281 4.285156 -1.644531 4.546875 -2.375 L 8.125 -12.375 C 8.226562 -12.664062 8.21875 -12.882812 8.09375 -13.03125 C 7.976562 -13.1875 7.785156 -13.3125 7.515625 -13.40625 C 7.285156 -13.488281 7.03125 -13.554688 6.75 -13.609375 C 6.46875 -13.671875 6.203125 -13.742188 5.953125 -13.828125 Z M 5.953125 -13.828125 "/></g></g></g><g fill="#5e376d" fill-opacity="1"><g transform="translate(241.587312, 73.525886)"><g/></g></g><g fill="#5e376d" fill-opacity="1"><g transform="translate(252.174355, 78.375213)"><g><path d="M 16.53125 -14.96875 C 15.84375 -14.738281 15.257812 -14.816406 14.78125 -15.203125 C 14.5 -15.421875 14.34375 -15.710938 14.3125 -16.078125 C 14.289062 -16.441406 14.488281 -16.800781 14.90625 -17.15625 C 15.40625 -17.613281 15.945312 -18.070312 16.53125 -18.53125 C 17.113281 -19 17.609375 -19.398438 18.015625 -19.734375 C 18.304688 -19.960938 18.613281 -20.066406 18.9375 -20.046875 C 19.269531 -20.023438 19.566406 -19.910156 19.828125 -19.703125 L 38.328125 -5.015625 C 38.921875 -4.535156 39.066406 -3.945312 38.765625 -3.25 C 38.566406 -2.757812 38.296875 -2.179688 37.953125 -1.515625 C 37.617188 -0.859375 37.285156 -0.234375 36.953125 0.359375 C 36.703125 0.835938 36.394531 1.109375 36.03125 1.171875 C 35.675781 1.234375 35.359375 1.148438 35.078125 0.921875 C 34.617188 0.554688 34.40625 0 34.4375 -0.75 C 34.519531 -1.382812 34.59375 -2.019531 34.65625 -2.65625 C 34.71875 -3.289062 34.59375 -3.960938 34.28125 -4.671875 C 33.96875 -5.378906 33.289062 -6.148438 32.25 -6.984375 L 31.375 -7.671875 L 17.84375 9.359375 C 17.40625 9.910156 17.304688 10.550781 17.546875 11.28125 C 17.609375 11.394531 17.660156 11.519531 17.703125 11.65625 C 17.742188 11.800781 17.78125 11.925781 17.8125 12.03125 C 17.925781 12.425781 17.789062 12.75 17.40625 13 C 17.03125 13.25 16.6875 13.25 16.375 13 L 7.078125 5.625 C 6.785156 5.394531 6.722656 5.066406 6.890625 4.640625 C 7.066406 4.222656 7.34375 4.015625 7.71875 4.015625 C 7.863281 4.046875 8.007812 4.066406 8.15625 4.078125 C 8.3125 4.097656 8.460938 4.117188 8.609375 4.140625 C 8.960938 4.234375 9.304688 4.210938 9.640625 4.078125 C 9.972656 3.941406 10.253906 3.753906 10.484375 3.515625 L 24.015625 -13.515625 L 23.125 -14.234375 C 22.070312 -15.054688 21.171875 -15.535156 20.421875 -15.671875 C 19.671875 -15.816406 18.992188 -15.785156 18.390625 -15.578125 C 17.785156 -15.367188 17.164062 -15.164062 16.53125 -14.96875 Z M 16.53125 -14.96875 "/></g></g></g><g fill="#5e376d" fill-opacity="1"><g transform="translate(273.963569, 95.473298)"><g><path d="M 20.328125 -15.046875 C 20.171875 -15.273438 20.148438 -15.515625 20.265625 -15.765625 C 20.378906 -16.015625 20.5625 -16.207031 20.8125 -16.34375 C 21.0625 -16.476562 21.3125 -16.492188 21.5625 -16.390625 C 22.488281 -16.035156 23.484375 -15.421875 24.546875 -14.546875 C 25.609375 -13.679688 26.53125 -12.757812 27.3125 -11.78125 C 27.945312 -10.988281 28.394531 -10.289062 28.65625 -9.6875 C 28.925781 -9.09375 28.9375 -8.515625 28.6875 -7.953125 C 28.4375 -7.390625 27.859375 -6.75 26.953125 -6.03125 L 19.109375 0.25 C 20.421875 0.113281 21.703125 0.285156 22.953125 0.765625 C 24.203125 1.253906 25.269531 2.03125 26.15625 3.09375 C 27.71875 4.96875 28.460938 6.609375 28.390625 8.015625 C 28.328125 9.421875 27.46875 10.785156 25.8125 12.109375 L 19.21875 17.375 L 19.234375 17.421875 L 18.9375 17.65625 C 18.375 18.113281 18.144531 18.726562 18.25 19.5 C 18.28125 19.601562 18.296875 19.722656 18.296875 19.859375 C 18.304688 20.003906 18.320312 20.140625 18.34375 20.265625 C 18.351562 20.671875 18.144531 20.953125 17.71875 21.109375 C 17.289062 21.265625 16.960938 21.195312 16.734375 20.90625 L 12.78125 15.96875 C 12.1875 15.226562 11.875 14.554688 11.84375 13.953125 C 11.820312 13.347656 11.984375 12.785156 12.328125 12.265625 C 12.671875 11.753906 13.082031 11.285156 13.5625 10.859375 L 18.453125 7.03125 C 18.984375 6.59375 19.515625 6.148438 20.046875 5.703125 C 20.578125 5.253906 20.957031 4.796875 21.1875 4.328125 C 21.414062 3.867188 21.332031 3.40625 20.9375 2.9375 C 20.570312 2.488281 20.039062 2.226562 19.34375 2.15625 C 18.65625 2.09375 17.941406 2.164062 17.203125 2.375 C 16.460938 2.59375 15.820312 2.90625 15.28125 3.3125 L 10.515625 7.109375 C 10.253906 7.316406 10.066406 7.585938 9.953125 7.921875 C 9.847656 8.265625 9.804688 8.609375 9.828125 8.953125 C 9.859375 9.078125 9.875 9.203125 9.875 9.328125 C 9.882812 9.460938 9.890625 9.59375 9.890625 9.71875 C 9.929688 10.144531 9.738281 10.4375 9.3125 10.59375 C 8.882812 10.757812 8.539062 10.679688 8.28125 10.359375 L 1.359375 1.703125 C 1.117188 1.398438 1.125 1.054688 1.375 0.671875 C 1.625 0.296875 1.945312 0.164062 2.34375 0.28125 C 2.476562 0.332031 2.617188 0.382812 2.765625 0.4375 C 2.910156 0.488281 3.046875 0.546875 3.171875 0.609375 C 3.859375 0.929688 4.503906 0.847656 5.109375 0.359375 L 21.40625 -12.671875 C 21.644531 -12.859375 21.75 -13.046875 21.71875 -13.234375 C 21.695312 -13.429688 21.597656 -13.640625 21.421875 -13.859375 C 21.265625 -14.054688 21.082031 -14.253906 20.875 -14.453125 C 20.675781 -14.648438 20.492188 -14.847656 20.328125 -15.046875 Z M 20.328125 -15.046875 "/></g></g></g><g fill="#5e376d" fill-opacity="1"><g transform="translate(290.166167, 115.629845)"><g><path d="M 13.828125 -5.96875 C 13.722656 -6.238281 13.75 -6.476562 13.90625 -6.6875 C 14.070312 -6.90625 14.289062 -7.054688 14.5625 -7.140625 C 14.832031 -7.222656 15.085938 -7.1875 15.328125 -7.03125 C 16.171875 -6.476562 16.984375 -5.738281 17.765625 -4.8125 C 18.554688 -3.882812 19.203125 -2.9375 19.703125 -1.96875 C 20.054688 -1.28125 20.300781 -0.648438 20.4375 -0.078125 C 20.582031 0.484375 20.539062 1.015625 20.3125 1.515625 C 20.09375 2.015625 19.597656 2.488281 18.828125 2.9375 C 19.660156 2.976562 20.503906 3.203125 21.359375 3.609375 C 22.222656 4.023438 22.988281 4.738281 23.65625 5.75 C 24.65625 7.207031 25.25 8.617188 25.4375 9.984375 C 25.632812 11.359375 25.515625 12.566406 25.078125 13.609375 C 24.640625 14.648438 23.941406 15.394531 22.984375 15.84375 C 22.023438 16.300781 21.039062 16.34375 20.03125 15.96875 C 19.019531 15.601562 18.210938 14.648438 17.609375 13.109375 C 17.273438 12.304688 17.160156 11.628906 17.265625 11.078125 C 17.378906 10.535156 17.628906 10.09375 18.015625 9.75 C 18.410156 9.414062 18.835938 9.125 19.296875 8.875 C 19.765625 8.625 20.195312 8.390625 20.59375 8.171875 C 21 7.953125 21.285156 7.695312 21.453125 7.40625 C 21.628906 7.125 21.585938 6.75 21.328125 6.28125 C 21.003906 5.726562 20.5625 5.359375 20 5.171875 C 19.4375 4.984375 18.8125 4.925781 18.125 5 C 17.4375 5.070312 16.765625 5.21875 16.109375 5.4375 C 15.460938 5.65625 14.90625 5.882812 14.4375 6.125 L 8.796875 9 C 8.492188 9.144531 8.253906 9.367188 8.078125 9.671875 C 7.898438 9.972656 7.789062 10.300781 7.75 10.65625 C 7.757812 10.789062 7.753906 10.921875 7.734375 11.046875 C 7.710938 11.171875 7.6875 11.296875 7.65625 11.421875 C 7.613281 11.835938 7.363281 12.082031 6.90625 12.15625 C 6.457031 12.226562 6.144531 12.082031 5.96875 11.71875 L 0.984375 1.953125 C 0.816406 1.609375 0.890625 1.273438 1.203125 0.953125 C 1.523438 0.628906 1.867188 0.5625 2.234375 0.75 C 2.359375 0.832031 2.484375 0.910156 2.609375 0.984375 C 2.742188 1.066406 2.867188 1.148438 2.984375 1.234375 C 3.597656 1.691406 4.25 1.75 4.9375 1.40625 L 14.40625 -3.421875 C 14.675781 -3.554688 14.820312 -3.722656 14.84375 -3.921875 C 14.863281 -4.117188 14.804688 -4.34375 14.671875 -4.59375 C 14.554688 -4.8125 14.414062 -5.035156 14.25 -5.265625 C 14.082031 -5.492188 13.941406 -5.726562 13.828125 -5.96875 Z M 13.828125 -5.96875 "/></g></g></g><g fill="#5e376d" fill-opacity="1"><g transform="translate(300.567107, 135.908314)"><g><path d="M 8.71875 -2.109375 C 10.695312 -2.742188 12.503906 -2.800781 14.140625 -2.28125 C 15.785156 -1.757812 17.1875 -0.789062 18.34375 0.625 C 19.507812 2.050781 20.394531 3.78125 21 5.8125 C 21.507812 7.53125 21.707031 9.097656 21.59375 10.515625 C 21.488281 11.929688 21.140625 13.140625 20.546875 14.140625 C 19.953125 15.148438 19.175781 15.894531 18.21875 16.375 C 17.207031 16.851562 16.25 16.921875 15.34375 16.578125 C 14.4375 16.234375 13.582031 15.628906 12.78125 14.765625 C 11.988281 13.898438 11.304688 12.921875 10.734375 11.828125 C 10.160156 10.742188 9.726562 9.703125 9.4375 8.703125 C 9.238281 8.066406 9.097656 7.492188 9.015625 6.984375 C 7.828125 7.878906 7.066406 8.828125 6.734375 9.828125 C 6.410156 10.828125 6.390625 11.851562 6.671875 12.90625 C 7.015625 14.0625 7.613281 14.96875 8.46875 15.625 C 9.332031 16.28125 10.375 16.554688 11.59375 16.453125 C 12.46875 16.410156 12.96875 16.742188 13.09375 17.453125 C 13.195312 18.160156 12.800781 18.570312 11.90625 18.6875 C 9.5 18.882812 7.539062 18.257812 6.03125 16.8125 C 4.53125 15.363281 3.394531 13.332031 2.625 10.71875 C 1.71875 7.664062 1.773438 5 2.796875 2.71875 C 3.816406 0.445312 5.789062 -1.160156 8.71875 -2.109375 Z M 18.578125 5.40625 C 18.304688 4.90625 17.773438 4.578125 16.984375 4.421875 C 16.203125 4.265625 15.257812 4.304688 14.15625 4.546875 C 13.0625 4.796875 11.910156 5.25 10.703125 5.90625 C 10.828125 6.488281 11.023438 7.101562 11.296875 7.75 C 11.578125 8.40625 11.945312 8.960938 12.40625 9.421875 C 12.875 9.878906 13.441406 10.101562 14.109375 10.09375 C 15.128906 10.082031 16.035156 9.828125 16.828125 9.328125 C 17.628906 8.828125 18.207031 8.210938 18.5625 7.484375 C 18.925781 6.765625 18.929688 6.070312 18.578125 5.40625 Z M 18.578125 5.40625 "/></g></g></g><g fill="#5e376d" fill-opacity="1"><g transform="translate(306.698902, 155.322256)"><g><path d="M 4.203125 0.421875 C 5.585938 0.148438 6.769531 0.257812 7.75 0.75 C 8.726562 1.238281 9.535156 1.960938 10.171875 2.921875 C 10.804688 3.890625 11.289062 4.953125 11.625 6.109375 C 11.96875 7.273438 12.191406 8.378906 12.296875 9.421875 C 12.441406 10.828125 12.421875 11.921875 12.234375 12.703125 L 13.546875 12.578125 C 14.992188 12.421875 16.050781 12.144531 16.71875 11.75 C 17.394531 11.351562 17.703125 10.726562 17.640625 9.875 C 17.554688 8.914062 17.238281 8.3125 16.6875 8.0625 C 16.132812 7.820312 15.476562 7.640625 14.71875 7.515625 C 14.226562 7.429688 13.820312 7.113281 13.5 6.5625 C 13.175781 6.007812 12.976562 5.398438 12.90625 4.734375 C 12.820312 3.941406 12.929688 3.1875 13.234375 2.46875 C 13.535156 1.757812 14.039062 1.394531 14.75 1.375 C 15.925781 1.332031 16.960938 2.109375 17.859375 3.703125 C 18.753906 5.296875 19.332031 7.441406 19.59375 10.140625 C 19.789062 12.097656 19.71875 13.894531 19.375 15.53125 C 19.039062 17.175781 18.359375 18.519531 17.328125 19.5625 C 16.304688 20.601562 14.878906 21.21875 13.046875 21.40625 C 11.734375 21.519531 10.476562 21.632812 9.28125 21.75 C 8.082031 21.875 7.101562 21.976562 6.34375 22.0625 C 5.113281 22.1875 4.492188 22.539062 4.484375 23.125 C 4.492188 23.4375 4.609375 23.695312 4.828125 23.90625 C 5.054688 24.125 5.160156 24.363281 5.140625 24.625 C 5.109375 24.863281 4.925781 25 4.59375 25.03125 C 4.257812 25.0625 3.878906 24.910156 3.453125 24.578125 C 3.023438 24.253906 2.617188 23.6875 2.234375 22.875 C 1.859375 22.0625 1.609375 20.929688 1.484375 19.484375 C 1.367188 18.078125 1.539062 16.816406 2 15.703125 C 2.457031 14.585938 3.234375 13.867188 4.328125 13.546875 C 3.148438 13.085938 2.203125 12.273438 1.484375 11.109375 C 0.773438 9.941406 0.347656 8.671875 0.203125 7.296875 C 0.0351562 5.566406 0.304688 4.0625 1.015625 2.78125 C 1.734375 1.507812 2.796875 0.722656 4.203125 0.421875 Z M 7.296875 8.640625 C 6.335938 8.648438 5.566406 8.890625 4.984375 9.359375 C 4.398438 9.835938 4.164062 10.492188 4.28125 11.328125 C 4.394531 12.222656 4.828125 12.753906 5.578125 12.921875 C 6.328125 13.097656 7.203125 13.148438 8.203125 13.078125 L 10.296875 12.90625 C 10.335938 12.757812 10.382812 12.519531 10.4375 12.1875 C 10.5 11.863281 10.507812 11.507812 10.46875 11.125 C 10.40625 10.53125 10.160156 9.96875 9.734375 9.4375 C 9.304688 8.90625 8.492188 8.640625 7.296875 8.640625 Z M 7.296875 8.640625 "/></g></g></g><g fill="#5e376d" fill-opacity="1"><g transform="translate(309.283533, 178.982896)"><g><path d="M 8.875 1.296875 C 10.925781 1.472656 12.648438 2.03125 14.046875 2.96875 C 15.453125 3.914062 16.457031 5.160156 17.0625 6.703125 C 17.675781 8.253906 17.800781 9.976562 17.4375 11.875 C 17.238281 12.90625 16.894531 13.832031 16.40625 14.65625 L 22.859375 15.28125 C 23.472656 15.332031 23.835938 15.265625 23.953125 15.078125 C 24.078125 14.898438 24.175781 14.5625 24.25 14.0625 C 24.3125 13.789062 24.460938 13.597656 24.703125 13.484375 C 24.953125 13.378906 25.210938 13.359375 25.484375 13.421875 C 25.765625 13.492188 25.960938 13.660156 26.078125 13.921875 C 26.429688 14.691406 26.675781 15.671875 26.8125 16.859375 C 26.945312 18.046875 26.960938 19.175781 26.859375 20.25 C 26.765625 21.238281 26.601562 22.015625 26.375 22.578125 C 26.144531 23.148438 25.738281 23.539062 25.15625 23.75 C 24.582031 23.96875 23.75 24.023438 22.65625 23.921875 L 21.046875 23.78125 C 20.628906 23.738281 19.898438 23.664062 18.859375 23.5625 C 17.828125 23.46875 16.632812 23.351562 15.28125 23.21875 C 13.9375 23.09375 12.546875 22.957031 11.109375 22.8125 C 9.671875 22.664062 8.304688 22.53125 7.015625 22.40625 C 5.734375 22.28125 4.640625 22.175781 3.734375 22.09375 C 2.835938 22.007812 2.257812 21.957031 2 21.9375 C 0.769531 21.8125 0.0859375 22.054688 -0.046875 22.671875 C -0.0859375 22.941406 -0.0195312 23.203125 0.15625 23.453125 C 0.332031 23.710938 0.382812 23.972656 0.3125 24.234375 C 0.238281 24.453125 0.0390625 24.546875 -0.28125 24.515625 C -0.613281 24.484375 -0.957031 24.265625 -1.3125 23.859375 C -1.675781 23.453125 -1.960938 22.804688 -2.171875 21.921875 C -2.390625 21.046875 -2.414062 19.882812 -2.25 18.4375 C -2.144531 17.570312 -1.945312 16.78125 -1.65625 16.0625 C -1.375 15.34375 -0.988281 14.75 -0.5 14.28125 C -0.800781 13.664062 -1.039062 12.988281 -1.21875 12.25 C -1.394531 11.507812 -1.476562 10.71875 -1.46875 9.875 C -1.457031 8.03125 -1.015625 6.4375 -0.140625 5.09375 C 0.734375 3.75 1.945312 2.738281 3.5 2.0625 C 5.050781 1.394531 6.84375 1.140625 8.875 1.296875 Z M 15.296875 11.3125 C 15.253906 10.738281 15.035156 10.316406 14.640625 10.046875 C 14.242188 9.785156 13.53125 9.648438 12.5 9.640625 C 11.46875 9.640625 10.003906 9.703125 8.109375 9.828125 C 6.234375 9.953125 4.757812 10.097656 3.6875 10.265625 C 2.613281 10.441406 1.859375 10.691406 1.421875 11.015625 C 0.992188 11.347656 0.804688 11.796875 0.859375 12.359375 C 0.910156 12.960938 1.175781 13.394531 1.65625 13.65625 C 2.132812 13.914062 2.910156 14.050781 3.984375 14.0625 C 5.054688 14.082031 6.535156 14.03125 8.421875 13.90625 C 10.304688 13.769531 11.753906 13.609375 12.765625 13.421875 C 13.773438 13.242188 14.457031 13 14.8125 12.6875 C 15.175781 12.375 15.335938 11.914062 15.296875 11.3125 Z M 15.296875 11.3125 "/></g></g></g><g clip-path="url(#acd1f4166c)"><g clip-path="url(#ef5895aee1)"><g clip-path="url(#da3b1da8cf)"><g clip-path="url(#14e681ff9d)"><path fill="#5e376d" d="M 276.3125 248.535156 C 276.203125 248.769531 266.34375 247.347656 258.621094 245.984375 C 249.960938 244.453125 245.257812 243.0625 242.140625 241.109375 C 238.371094 238.75 229.996094 229.273438 216.789062 212.417969 C 214.585938 209.605469 211.203125 205.425781 209.273438 203.128906 C 207.34375 200.832031 205.542969 198.628906 205.277344 198.230469 C 204.796875 197.515625 205.097656 197.941406 214.875 194.625 C 217.359375 193.78125 222.339844 191.675781 224.960938 191.746094 C 225.777344 191.765625 232.433594 194.507812 234.03125 195.300781 C 234.757812 195.660156 236.414062 196.121094 236.9375 196.738281 C 237.734375 197.6875 239.742188 204.988281 239.78125 206.226562 C 239.839844 208.015625 238.175781 213.214844 238.175781 213.214844 C 236.480469 220.585938 236.460938 222.4375 238.078125 221.957031 C 238.789062 221.746094 239.136719 221.085938 239.554688 219.171875 C 239.859375 217.789062 240.570312 214.742188 241.132812 212.394531 C 241.703125 210.046875 242.21875 207.472656 242.289062 206.675781 C 242.449219 204.851562 240.164062 196.105469 238.332031 194.695312 C 237.195312 193.816406 225.191406 188.847656 224.304688 188.855469 C 221.972656 188.871094 217.621094 190.941406 215.445312 191.785156 C 207.835938 194.730469 206.238281 194.722656 203.796875 194.78125 C 200.945312 194.855469 199.839844 194.277344 200.507812 193.074219 C 201.203125 191.828125 208.433594 187.0625 212.976562 184.855469 C 221.988281 180.484375 225.214844 179.484375 228.449219 180.054688 C 234.699219 181.164062 246.632812 185.960938 249.507812 188.523438 C 250.730469 189.613281 254.292969 197.46875 258.382812 208.082031 C 259.292969 210.441406 262.039062 216.769531 264.488281 222.140625 C 272.179688 239.015625 276.378906 248.390625 276.3125 248.535156 Z M 198.847656 183.832031 C 200.117188 183.453125 201.304688 182.746094 202.289062 181.777344 C 204.257812 179.84375 204.113281 179.875 205.503906 181.117188 C 206.171875 181.710938 207.183594 182.417969 207.75 182.691406 C 209.164062 183.367188 209.164062 183.6875 207.746094 184.453125 C 207.074219 184.816406 205.183594 186.078125 203.542969 187.261719 C 201.902344 188.441406 200.320312 189.480469 200.03125 189.566406 C 199.691406 189.667969 199.179688 189 198.609375 187.707031 C 198.121094 186.597656 197.535156 185.402344 197.3125 185.050781 C 196.96875 184.503906 197.191406 184.324219 198.847656 183.832031 Z M 218.75 178.957031 C 218.109375 179.472656 216.359375 180.398438 214.859375 181.007812 L 212.128906 182.121094 L 209.71875 180.710938 C 205.777344 178.40625 205.636719 178.148438 207.203125 176.09375 C 209.5 173.085938 210.773438 172.132812 215.304688 170.03125 C 217.722656 168.914062 220.285156 167.660156 221 167.25 C 223.316406 165.914062 223.730469 165.871094 223.722656 166.964844 C 223.707031 170.628906 221.015625 177.125 218.75 178.957031 Z M 224.753906 174.261719 C 225.382812 172.578125 225.96875 170.539062 226.054688 169.726562 C 226.136719 168.921875 226.425781 168.265625 226.695312 168.273438 C 226.964844 168.28125 228.554688 169.492188 230.226562 170.964844 C 232.945312 173.355469 233.367188 173.917969 234.171875 176.175781 C 234.664062 177.566406 235.011719 178.722656 234.9375 178.742188 C 234.867188 178.761719 233.394531 178.425781 231.671875 177.988281 C 228.621094 177.222656 227.136719 177.0625 224.757812 177.238281 L 223.605469 177.324219 Z M 195.066406 180.949219 C 194.871094 180.285156 201.902344 167.363281 203.613281 165.242188 C 204.507812 164.136719 207.242188 161.765625 209.699219 159.964844 C 212.152344 158.167969 215.34375 155.726562 216.785156 154.542969 C 221.0625 151.027344 222.269531 150.371094 223.875 150.703125 C 224.71875 150.875 235.109375 158.105469 236.429688 159.441406 C 237.414062 160.433594 241.933594 169.402344 245.59375 177.609375 C 247.269531 181.371094 248.625 184.484375 248.605469 184.527344 C 248.585938 184.570312 246.617188 183.640625 244.234375 182.460938 C 241.847656 181.28125 239.554688 180.308594 239.128906 180.296875 C 238.507812 180.277344 238.222656 179.800781 237.613281 177.757812 C 236.195312 172.996094 235.125 171.476562 230.453125 167.585938 C 228.082031 165.609375 225.59375 163.832031 224.929688 163.632812 C 223.585938 163.230469 223.066406 163.414062 214.699219 167.261719 C 209.136719 169.820312 208.363281 170.445312 203.792969 176.070312 C 200.277344 180.394531 198.550781 181.6875 196.550781 181.480469 C 195.796875 181.402344 195.128906 181.160156 195.066406 180.949219 Z M 191.652344 171.660156 C 190.410156 168.53125 190.410156 168.507812 191.34375 168.234375 C 192.09375 168.015625 192.703125 168.390625 194.320312 170.054688 L 196.351562 172.152344 L 195.175781 174.375 C 194.011719 176.574219 193.996094 176.589844 193.453125 175.707031 C 193.148438 175.214844 192.339844 173.394531 191.652344 171.660156 Z M 211.699219 155.003906 C 209.09375 156.660156 203.179688 161.539062 201.921875 163.070312 C 201.132812 164.035156 199.867188 165.875 199.113281 167.164062 C 198.355469 168.449219 197.660156 169.449219 197.566406 169.382812 C 197.136719 169.066406 194.742188 166.714844 194.699219 166.5625 C 194.671875 166.472656 195.296875 165.78125 196.09375 165.035156 C 196.886719 164.285156 198.425781 162.539062 199.511719 161.148438 C 202.253906 157.652344 203.71875 156.507812 209.152344 153.617188 C 211.753906 152.234375 214.265625 150.804688 214.730469 150.433594 C 215.777344 149.605469 218.011719 148.859375 218.402344 149.210938 C 218.671875 149.453125 213.769531 153.6875 211.699219 155.003906 Z M 188.957031 166.332031 C 183.238281 168.035156 183.359375 164.429688 189.28125 156.480469 C 196.339844 147.011719 195.917969 147.402344 206.511719 140.496094 C 215.675781 134.519531 216.484375 134.148438 218.539062 134.960938 C 219.804688 135.464844 229.539062 141.867188 233.214844 144.617188 C 237.398438 147.75 248.675781 157.207031 249.8125 158.535156 C 251.492188 160.503906 252.980469 164.394531 252.96875 166.777344 L 252.957031 168.664062 L 247.542969 164.261719 C 244.566406 161.835938 241.34375 159.304688 240.378906 158.636719 C 239.417969 157.964844 238.039062 156.558594 237.316406 155.511719 C 235.695312 153.167969 233.761719 151.839844 232.128906 151.960938 C 231.449219 152.011719 230.449219 151.675781 229.90625 151.214844 C 227.980469 149.589844 224.769531 147.921875 223.65625 147.972656 C 223.039062 148 221.628906 147.621094 220.527344 147.128906 C 217.632812 145.839844 216.464844 146.097656 211.875 149.03125 C 209.710938 150.414062 207.492188 151.679688 206.953125 151.839844 C 205.617188 152.238281 201.691406 154.632812 200.511719 155.773438 C 199.980469 156.28125 198.59375 157.953125 197.425781 159.484375 C 194.726562 163.023438 191.617188 165.539062 188.957031 166.332031 Z M 190.910156 178.800781 C 189.640625 177.339844 184.453125 170.136719 184.300781 169.621094 C 184.261719 169.492188 184.582031 169.425781 185.015625 169.472656 C 185.449219 169.519531 186.234375 169.523438 186.765625 169.484375 C 187.859375 169.402344 188 169.617188 190.15625 174.75 C 192.429688 180.171875 192.519531 180.65625 190.910156 178.800781 Z M 175.523438 136.910156 L 173.132812 132.875 L 175.894531 131.792969 C 178.761719 130.667969 186.148438 126.585938 194.730469 121.378906 C 197.464844 119.71875 200.015625 118.261719 200.390625 118.140625 C 200.824219 118.003906 201.285156 118.300781 201.644531 118.949219 C 203.128906 121.65625 206.394531 126.566406 208.941406 129.933594 C 210.492188 131.984375 211.746094 133.6875 211.722656 133.71875 C 211.707031 133.75 208.097656 136.171875 203.703125 139.101562 C 199.3125 142.035156 195.1875 144.9375 194.535156 145.558594 C 193.878906 146.175781 191.585938 148.972656 189.429688 151.769531 C 187.277344 154.566406 185.4375 156.816406 185.351562 156.769531 C 185.261719 156.71875 183.550781 153.140625 181.550781 148.8125 C 179.554688 144.484375 176.839844 139.128906 175.523438 136.910156 Z M 202.511719 102.417969 C 202.84375 102.640625 204.8125 105.203125 206.878906 108.109375 C 208.945312 111.019531 212.136719 115.140625 213.972656 117.265625 L 217.3125 121.136719 L 217.585938 131.59375 L 216 132.023438 C 214.5 132.425781 214.339844 132.355469 212.9375 130.707031 C 212.125 129.75 209.828125 126.613281 207.835938 123.738281 C 204.722656 119.242188 204.007812 117.929688 202.75 114.347656 C 200.152344 106.960938 200.03125 100.761719 202.511719 102.417969 Z M 220.21875 128.742188 C 220.160156 126.578125 220.085938 124.730469 220.058594 124.636719 C 219.855469 123.957031 220.796875 124.769531 223.355469 127.492188 C 224.980469 129.21875 227.546875 132.320312 229.058594 134.386719 C 230.566406 136.449219 232.621094 139.15625 233.625 140.40625 C 235.535156 142.78125 235.445312 142.851562 232.894531 141.011719 C 232.042969 140.394531 228.863281 138.269531 225.835938 136.285156 L 220.328125 132.679688 Z M 258.054688 199.917969 C 257.992188 200.035156 256.671875 197.042969 255.125 193.265625 C 251.589844 184.625 246.132812 172.207031 243.640625 167.125 C 242.589844 164.984375 241.773438 163.222656 241.816406 163.210938 C 241.863281 163.195312 243.292969 164.289062 244.988281 165.636719 C 246.683594 166.984375 249.195312 169.113281 250.5625 170.367188 C 252.757812 172.371094 253.140625 172.929688 253.773438 175.0625 C 255.492188 180.855469 258.601562 198.90625 258.054688 199.917969 Z M 164 122.480469 C 163.492188 122.171875 162.484375 121.859375 161.761719 121.78125 C 160.121094 121.613281 159.984375 121.214844 161.238281 120.28125 C 162.605469 119.265625 164.519531 118.703125 165.257812 119.101562 C 166.214844 119.621094 166.335938 120.621094 165.597656 121.890625 C 164.933594 123.023438 164.910156 123.035156 164 122.480469 Z M 165.9375 129.015625 C 164.9375 128.71875 164.75 128.503906 164.992188 127.9375 C 165.332031 127.136719 165.816406 127.3125 166.625 128.542969 C 167.179688 129.378906 167.171875 129.386719 165.9375 129.015625 Z M 162.578125 126.613281 C 161.160156 128.730469 148.449219 145.332031 148.1875 145.410156 C 148.058594 145.449219 148.105469 144.65625 148.289062 143.648438 C 148.539062 142.308594 149.378906 140.90625 151.421875 138.429688 C 152.957031 136.566406 156.042969 132.699219 158.28125 129.835938 C 161.246094 126.042969 162.503906 124.71875 162.914062 124.949219 C 163.324219 125.175781 163.234375 125.632812 162.578125 126.613281 Z M 165.863281 155.046875 C 165.625 152.480469 167.78125 155.074219 168.84375 158.628906 C 170.011719 162.53125 170.835938 168.691406 173.847656 196.042969 C 175.21875 208.464844 175.363281 217.441406 174.214844 218.730469 C 174.03125 218.933594 172.46875 219.296875 170.742188 219.53125 C 167.03125 220.035156 165.925781 220.738281 161.371094 225.507812 C 159.753906 227.203125 158.066406 228.59375 157.382812 228.796875 C 156.730469 228.992188 154.53125 228.863281 152.496094 228.507812 C 149.886719 228.054688 147.71875 228.003906 145.167969 228.335938 C 140.175781 228.988281 138.320312 228.632812 132.964844 226.015625 C 129.429688 224.289062 126.902344 223.445312 122.378906 222.472656 C 114.167969 220.710938 113.222656 219.6875 113.453125 212.808594 C 113.671875 206.28125 115.125 201.167969 122.578125 180.710938 C 132.292969 154.054688 138.609375 140.136719 142.460938 136.898438 C 144 135.601562 144.453125 135.5 145.210938 136.265625 C 145.5625 136.621094 145.9375 137.1875 146.035156 137.523438 C 146.515625 139.140625 145.6875 143.632812 143.671875 150.304688 C 142.453125 154.335938 140.675781 160.609375 139.71875 164.246094 C 138.761719 167.878906 137.207031 173.625 136.261719 177.015625 C 135.320312 180.410156 134.050781 185.679688 133.445312 188.730469 C 132.839844 191.78125 131.992188 195.851562 131.558594 197.773438 C 129.757812 205.824219 129.613281 206.710938 129.980469 207.507812 C 130.378906 208.375 131.378906 208.503906 131.953125 207.769531 C 132.132812 207.535156 133.402344 202.019531 134.769531 195.511719 C 137.003906 184.882812 138.476562 179.019531 143.8125 159.433594 C 145.320312 153.898438 145.53125 153.457031 148.320312 149.828125 C 149.929688 147.734375 152.539062 144.335938 154.121094 142.273438 C 155.699219 140.210938 157.058594 138.558594 157.136719 138.601562 C 157.371094 138.71875 157.136719 140.480469 155.242188 152.878906 C 153.292969 165.617188 153.433594 164.839844 151.078125 176.121094 C 148.601562 187.996094 147.515625 198.144531 147.839844 206.363281 C 148.011719 210.765625 148.589844 212.4375 149.878906 212.246094 C 150.851562 212.101562 150.910156 211.605469 150.53125 206.699219 C 150.058594 200.609375 151.191406 189.640625 153.449219 178.425781 C 155.351562 168.988281 159.328125 145.753906 159.546875 142.789062 C 160.121094 135.160156 162.960938 149.015625 163.6875 162.980469 C 163.976562 168.550781 163.886719 170.976562 162.785156 186.589844 C 161.898438 199.195312 162.222656 209.566406 163.550781 210.90625 C 165.007812 212.375 165.828125 210.9375 165.363281 207.71875 C 164.847656 204.179688 164.875 195.027344 165.417969 187.910156 C 166.683594 171.277344 166.769531 164.796875 165.863281 155.046875 Z M 116.140625 182.296875 C 108.738281 191.195312 102.628906 198.859375 101.003906 201.292969 L 99.597656 203.398438 L 98.699219 202.6875 C 97.515625 201.75 97.445312 201.324219 98.277344 200.242188 C 104.121094 192.664062 122.558594 171.164062 123.003906 171.40625 C 123.125 171.472656 122.792969 172.550781 122.265625 173.804688 C 121.660156 175.253906 119.425781 178.351562 116.140625 182.296875 Z M 90.0625 218.917969 C 87.058594 221.960938 84.097656 219.664062 85.808594 215.621094 C 86.507812 213.957031 94.105469 203.230469 94.652344 203.128906 C 94.773438 203.109375 95.808594 203.777344 96.957031 204.613281 C 98.101562 205.449219 99.078125 206.273438 99.121094 206.445312 C 99.21875 206.828125 91.492188 217.46875 90.0625 218.917969 Z M 301.375 213.941406 C 300.554688 213.496094 289.550781 212.6875 274.425781 211.960938 C 264.390625 211.480469 263.265625 211.367188 262.570312 210.792969 C 261.847656 210.195312 261.386719 208.0625 261.175781 204.347656 C 260.679688 195.628906 259.269531 186.816406 256.488281 174.9375 C 256.199219 173.707031 255.863281 170.871094 255.742188 168.632812 C 255.566406 165.503906 255.25 163.847656 254.367188 161.429688 C 253.0625 157.859375 253.144531 157.964844 243.800781 147.828125 C 240.078125 143.792969 235.359375 138.25 233.308594 135.511719 C 227.875 128.246094 226.671875 126.734375 225.601562 125.84375 C 222.675781 123.410156 220.003906 120.066406 219.421875 118.109375 C 218.695312 115.675781 216.386719 113.058594 214.199219 112.199219 C 212.964844 111.714844 212.042969 110.667969 208.851562 106.144531 C 204.335938 99.746094 203.21875 98.460938 200.660156 99.414062 C 198.246094 100.3125 198.050781 103.632812 198.03125 104.472656 C 197.992188 106.519531 199.285156 113.582031 199.847656 114.417969 C 200.179688 114.902344 200.070312 115.207031 199.441406 115.5625 C 198.96875 115.828125 194.179688 118.628906 188.796875 121.785156 C 177.457031 128.433594 172.925781 130.632812 171.8125 130.035156 C 171.414062 129.816406 170.191406 128.554688 169.097656 127.222656 L 167.109375 124.804688 L 168.027344 122.882812 C 168.769531 121.320312 168.847656 120.636719 168.429688 119.238281 C 167.84375 117.265625 166.460938 116.285156 164.621094 116.347656 C 161.960938 116.433594 158.65625 118.699219 157.953125 119.902344 C 157.5625 120.570312 157.347656 121.464844 157.476562 121.890625 C 157.601562 122.3125 157.414062 123.328125 157.058594 124.144531 C 156.703125 124.960938 156.527344 126.023438 156.664062 126.5 C 156.851562 127.160156 155.925781 128.605469 152.878906 132.417969 L 148.84375 137.460938 L 148.101562 135.832031 C 146.738281 132.832031 143.664062 132.402344 140.726562 134.800781 C 137.960938 137.0625 133.296875 145.839844 128.078125 158.609375 L 126.035156 163.601562 L 119.238281 171.210938 C 112.269531 179.011719 97.730469 196.285156 96.210938 198.570312 C 95.746094 199.273438 94.867188 199.996094 94.261719 200.175781 C 93.132812 200.511719 91.3125 202.628906 87.28125 208.277344 C 82.746094 214.636719 82.078125 216.390625 83.015625 219.488281 C 83.902344 222.410156 86.015625 223.511719 89.027344 222.613281 C 91 222.027344 92.410156 220.597656 96.433594 215.097656 C 101.949219 207.558594 102.671875 206.351562 102.183594 205.472656 C 101.671875 204.5625 102.632812 203.191406 111.164062 192.632812 C 119.332031 182.53125 118.820312 183.007812 117.511719 186.730469 C 113.503906 198.148438 112.5 201.363281 111.742188 205.195312 C 110.582031 211.066406 110.46875 215.3125 111.386719 218.316406 C 112.570312 222.175781 114.167969 223.417969 119.929688 224.941406 C 120.78125 225.167969 122.070312 225.84375 122.800781 226.441406 C 126.160156 229.210938 130.507812 238.195312 133.113281 247.769531 L 134.703125 253.601562 L 135.703125 253.304688 C 136.578125 253.042969 136.667969 252.777344 136.4375 251.128906 C 135.613281 245.300781 131.027344 233.105469 127.917969 228.472656 L 126.441406 226.273438 L 127.964844 226.792969 C 128.800781 227.078125 131.175781 228.128906 133.234375 229.121094 C 137.851562 231.351562 139.664062 231.660156 144.683594 231.054688 C 147.511719 230.714844 149.664062 230.769531 152.324219 231.242188 C 155.683594 231.84375 156.25 231.820312 158.421875 231.019531 C 160.414062 230.289062 161.257812 229.664062 163.449219 227.316406 C 167.125 223.378906 168.519531 222.433594 171.023438 222.171875 C 172.140625 222.054688 173.15625 222.011719 173.273438 222.074219 C 173.394531 222.140625 172.125 225.894531 170.453125 230.417969 C 168.070312 236.871094 167.183594 240.023438 166.34375 245.054688 C 164.648438 255.140625 164.722656 257.3125 166.71875 256.390625 C 167.378906 256.085938 167.660156 255.117188 168.027344 251.945312 C 169.070312 242.84375 169.859375 239.746094 173.964844 228.644531 C 176.910156 220.691406 177.824219 216.324219 177.679688 210.957031 C 177.582031 207.382812 176.402344 194.097656 175.554688 187.066406 C 175.390625 185.683594 174.832031 180.855469 174.320312 176.34375 C 173.019531 164.929688 172.382812 161.308594 170.9375 157.171875 C 169.550781 153.195312 168.398438 151.6875 166.453125 151.289062 C 165.542969 151.101562 165.226562 150.808594 165.21875 150.148438 C 165.214844 149.660156 164.675781 147.070312 164.023438 144.394531 C 163.066406 140.460938 162.632812 139.273438 161.761719 138.214844 C 161.171875 137.496094 160.496094 136.960938 160.265625 137.03125 C 160.035156 137.101562 159.738281 136.800781 159.613281 136.371094 C 159.46875 135.886719 160.015625 134.714844 161.03125 133.335938 C 161.941406 132.101562 162.78125 131.0625 162.894531 131.027344 C 163.007812 130.996094 164.699219 131.449219 166.652344 132.039062 L 170.203125 133.113281 L 172.648438 137.324219 C 175.824219 142.792969 177.371094 145.851562 180.777344 153.390625 L 183.574219 159.585938 L 183.027344 161.097656 C 182.726562 161.925781 182.238281 162.679688 181.941406 162.765625 C 181.640625 162.855469 181.089844 163.5 180.707031 164.199219 C 180.164062 165.203125 180.144531 165.886719 180.601562 167.425781 C 181.339844 169.910156 183.75 173.925781 187.070312 178.203125 C 194.332031 187.558594 197.40625 192.101562 197.742188 193.960938 C 197.984375 195.320312 198.34375 196.015625 199.148438 196.671875 C 200.105469 197.457031 200.460938 198.351562 202.292969 204.554688 C 204.625 212.460938 205.011719 214.925781 205.484375 224.90625 C 206.0625 237.097656 208.03125 243.820312 212.929688 250.335938 C 216.296875 254.816406 217.351562 258.027344 218.265625 266.570312 C 219.089844 274.324219 219.257812 275.265625 219.941406 275.964844 C 220.257812 276.289062 220.863281 276.449219 221.292969 276.324219 C 222.152344 276.066406 222.152344 276.199219 221.320312 270.007812 C 221.011719 267.707031 220.566406 264.121094 220.335938 262.035156 C 219.734375 256.65625 218.496094 253.585938 215.019531 248.828125 C 214.300781 247.847656 211.503906 244.4375 209.882812 238.757812 C 208.539062 234.039062 208.351562 231.785156 208.15625 226.078125 C 207.859375 217.308594 207.390625 213.554688 205.804688 207.222656 L 204.390625 201.574219 L 206.503906 204 C 207.667969 205.335938 210.601562 208.957031 213.027344 212.046875 C 230.332031 234.082031 237.289062 241.808594 242.027344 244.253906 C 246.265625 246.4375 259.972656 249.402344 273.34375 251.019531 C 275.453125 251.277344 277.339844 251.570312 277.53125 251.675781 C 277.726562 251.777344 278.960938 254.085938 280.273438 256.808594 C 282.890625 262.226562 288.007812 271.707031 291.902344 278.355469 C 293.273438 280.699219 294.664062 283.085938 294.992188 283.664062 C 295.800781 285.09375 297.371094 284.464844 297.082031 282.824219 C 296.976562 282.214844 294.625 277.726562 291.859375 272.851562 C 287.101562 264.457031 283.652344 257.96875 281.761719 253.828125 L 280.914062 251.976562 L 282.925781 252.347656 C 285.042969 252.738281 298.871094 254.039062 302.976562 254.230469 C 305.652344 254.355469 306.804688 253.839844 306.457031 252.671875 C 306.191406 251.769531 306.265625 251.78125 295.042969 250.855469 C 290.503906 250.480469 285.152344 249.9375 283.144531 249.652344 L 279.496094 249.136719 L 277.746094 245.125 C 276.78125 242.921875 273.769531 236.199219 271.050781 230.191406 C 268.332031 224.183594 265.632812 218.105469 265.046875 216.6875 L 263.984375 214.109375 L 274.308594 214.636719 C 279.988281 214.925781 288.179688 215.40625 292.511719 215.703125 C 296.839844 215.996094 300.753906 216.128906 301.203125 215.996094 C 302.25 215.683594 302.351562 214.46875 301.375 213.941406 " fill-opacity="1" fill-rule="nonzero"/></g></g></g></g><g fill="#462054" fill-opacity="1"><g transform="translate(133.543703, 319.026505)"><g><path d="M 5.46875 -12.890625 C 5.351562 -13.066406 5.363281 -13.25 5.5 -13.4375 C 5.644531 -13.625 5.816406 -13.679688 6.015625 -13.609375 L 17.046875 -9.46875 C 17.234375 -9.394531 17.375 -9.285156 17.46875 -9.140625 C 17.570312 -8.992188 17.601562 -8.820312 17.5625 -8.625 C 17.539062 -8.351562 17.503906 -8.019531 17.453125 -7.625 C 17.398438 -7.226562 17.332031 -6.847656 17.25 -6.484375 C 17.1875 -6.203125 17.066406 -6.015625 16.890625 -5.921875 C 16.722656 -5.835938 16.550781 -5.828125 16.375 -5.890625 C 16.09375 -5.992188 15.894531 -6.242188 15.78125 -6.640625 C 15.71875 -6.960938 15.648438 -7.296875 15.578125 -7.640625 C 15.515625 -7.984375 15.34375 -8.304688 15.0625 -8.609375 C 14.789062 -8.910156 14.316406 -9.191406 13.640625 -9.453125 L 11.5625 -10.234375 C 11.394531 -10.296875 11.234375 -10.296875 11.078125 -10.234375 C 10.921875 -10.171875 10.8125 -10.050781 10.75 -9.875 L 10.609375 -9.515625 L 9.09375 -5.484375 L 10.484375 -4.953125 C 10.992188 -4.765625 11.398438 -4.675781 11.703125 -4.6875 C 12.015625 -4.695312 12.265625 -4.757812 12.453125 -4.875 C 12.640625 -5 12.789062 -5.132812 12.90625 -5.28125 C 13.03125 -5.425781 13.15625 -5.539062 13.28125 -5.625 C 13.40625 -5.707031 13.5625 -5.726562 13.75 -5.6875 C 13.945312 -5.613281 14.046875 -5.398438 14.046875 -5.046875 C 14.054688 -4.703125 13.988281 -4.296875 13.84375 -3.828125 C 13.695312 -3.367188 13.519531 -2.925781 13.3125 -2.5 C 13.101562 -2.070312 12.878906 -1.734375 12.640625 -1.484375 C 12.398438 -1.234375 12.179688 -1.160156 11.984375 -1.265625 C 11.804688 -1.335938 11.707031 -1.441406 11.6875 -1.578125 C 11.664062 -1.722656 11.660156 -1.882812 11.671875 -2.0625 C 11.679688 -2.25 11.648438 -2.441406 11.578125 -2.640625 C 11.503906 -2.835938 11.359375 -3.035156 11.140625 -3.234375 C 10.929688 -3.429688 10.570312 -3.625 10.0625 -3.8125 L 8.671875 -4.34375 L 6.8125 0.59375 C 6.75 0.75 6.753906 0.898438 6.828125 1.046875 C 6.910156 1.203125 7.035156 1.3125 7.203125 1.375 L 9.6875 2.3125 C 10.34375 2.5625 10.875 2.65625 11.28125 2.59375 C 11.695312 2.539062 12.046875 2.414062 12.328125 2.21875 C 12.609375 2.019531 12.878906 1.828125 13.140625 1.640625 C 13.460938 1.398438 13.773438 1.335938 14.078125 1.453125 C 14.265625 1.515625 14.390625 1.640625 14.453125 1.828125 C 14.523438 2.015625 14.488281 2.222656 14.34375 2.453125 C 14.15625 2.785156 13.945312 3.117188 13.71875 3.453125 C 13.5 3.785156 13.316406 4.066406 13.171875 4.296875 C 13.066406 4.453125 12.929688 4.554688 12.765625 4.609375 C 12.597656 4.660156 12.425781 4.65625 12.25 4.59375 L 0.796875 0.296875 C 0.597656 0.222656 0.507812 0.0664062 0.53125 -0.171875 C 0.550781 -0.421875 0.664062 -0.570312 0.875 -0.625 C 0.976562 -0.644531 1.128906 -0.671875 1.328125 -0.703125 C 1.753906 -0.753906 2.035156 -0.96875 2.171875 -1.34375 L 5.984375 -11.484375 C 6.128906 -11.867188 6.054688 -12.210938 5.765625 -12.515625 C 5.628906 -12.648438 5.53125 -12.773438 5.46875 -12.890625 Z M 5.46875 -12.890625 "/></g></g></g><g fill="#462054" fill-opacity="1"><g transform="translate(148.351278, 324.45352)"><g><path d="M 0.84375 -1.6875 C 0.789062 -2.050781 0.835938 -2.375 0.984375 -2.65625 C 1.128906 -2.945312 1.347656 -3.140625 1.640625 -3.234375 C 1.929688 -3.328125 2.257812 -3.300781 2.625 -3.15625 C 2.957031 -3.019531 3.195312 -2.832031 3.34375 -2.59375 C 3.5 -2.363281 3.613281 -2.101562 3.6875 -1.8125 C 3.757812 -1.53125 3.851562 -1.234375 3.96875 -0.921875 C 4.082031 -0.617188 4.257812 -0.328125 4.5 -0.046875 C 4.75 0.234375 5.117188 0.484375 5.609375 0.703125 C 6.117188 0.910156 6.507812 0.96875 6.78125 0.875 C 7.0625 0.78125 7.238281 0.585938 7.3125 0.296875 C 7.375 0.046875 7.273438 -0.222656 7.015625 -0.515625 C 6.765625 -0.816406 6.421875 -1.128906 5.984375 -1.453125 C 5.546875 -1.785156 5.082031 -2.140625 4.59375 -2.515625 C 4.113281 -2.898438 3.664062 -3.3125 3.25 -3.75 C 2.832031 -4.1875 2.515625 -4.640625 2.296875 -5.109375 C 2.085938 -5.585938 2.050781 -6.097656 2.1875 -6.640625 C 2.34375 -7.234375 2.679688 -7.703125 3.203125 -8.046875 C 3.734375 -8.390625 4.410156 -8.578125 5.234375 -8.609375 C 6.066406 -8.648438 6.992188 -8.515625 8.015625 -8.203125 C 9.410156 -7.785156 10.457031 -7.285156 11.15625 -6.703125 C 11.851562 -6.128906 12.171875 -5.539062 12.109375 -4.9375 C 12.085938 -4.5625 11.914062 -4.296875 11.59375 -4.140625 C 11.269531 -3.984375 10.925781 -3.972656 10.5625 -4.109375 C 10.175781 -4.265625 9.898438 -4.476562 9.734375 -4.75 C 9.566406 -5.019531 9.421875 -5.3125 9.296875 -5.625 C 9.179688 -5.945312 9.019531 -6.242188 8.8125 -6.515625 C 8.601562 -6.796875 8.257812 -7.019531 7.78125 -7.1875 C 7.414062 -7.300781 7.085938 -7.328125 6.796875 -7.265625 C 6.503906 -7.203125 6.320312 -7.039062 6.25 -6.78125 C 6.144531 -6.488281 6.21875 -6.203125 6.46875 -5.921875 C 6.71875 -5.648438 7.066406 -5.367188 7.515625 -5.078125 C 7.972656 -4.796875 8.460938 -4.492188 8.984375 -4.171875 C 9.503906 -3.859375 9.984375 -3.507812 10.421875 -3.125 C 10.859375 -2.75 11.191406 -2.332031 11.421875 -1.875 C 11.660156 -1.414062 11.71875 -0.90625 11.59375 -0.34375 C 11.382812 0.769531 10.753906 1.507812 9.703125 1.875 C 8.648438 2.25 7.234375 2.207031 5.453125 1.75 C 5.128906 1.664062 4.726562 1.53125 4.25 1.34375 C 3.769531 1.15625 3.28125 0.914062 2.78125 0.625 C 2.28125 0.332031 1.847656 -0.00390625 1.484375 -0.390625 C 1.128906 -0.773438 0.914062 -1.207031 0.84375 -1.6875 Z M 0.84375 -1.6875 "/></g></g></g><g fill="#462054" fill-opacity="1"><g transform="translate(160.25209, 327.477442)"><g><path d="M 2.578125 -8.21875 C 2.234375 -8.269531 2.09375 -8.46875 2.15625 -8.8125 L 2.15625 -8.828125 C 2.207031 -9.117188 2.375 -9.257812 2.65625 -9.25 L 2.65625 -9.265625 C 3.15625 -9.191406 3.601562 -9.300781 4 -9.59375 C 4.394531 -9.882812 4.734375 -10.285156 5.015625 -10.796875 C 5.296875 -11.304688 5.515625 -11.832031 5.671875 -12.375 C 5.710938 -12.570312 5.800781 -12.722656 5.9375 -12.828125 C 6.070312 -12.941406 6.234375 -13.003906 6.421875 -13.015625 L 8.65625 -13.109375 C 8.863281 -13.109375 9.015625 -13.054688 9.109375 -12.953125 C 9.203125 -12.847656 9.234375 -12.695312 9.203125 -12.5 L 8.484375 -8.265625 L 10.28125 -7.953125 C 10.613281 -7.898438 10.75 -7.703125 10.6875 -7.359375 C 10.625 -7.015625 10.425781 -6.867188 10.09375 -6.921875 L 8.296875 -7.234375 L 7.21875 -0.921875 C 7.15625 -0.546875 7.175781 -0.273438 7.28125 -0.109375 C 7.394531 0.0546875 7.5625 0.15625 7.78125 0.1875 C 8.0625 0.238281 8.363281 0.234375 8.6875 0.171875 C 9.007812 0.117188 9.257812 0.109375 9.4375 0.140625 C 9.59375 0.160156 9.691406 0.210938 9.734375 0.296875 C 9.785156 0.460938 9.691406 0.660156 9.453125 0.890625 C 9.222656 1.117188 8.8125 1.296875 8.21875 1.421875 C 7.625 1.546875 6.8125 1.515625 5.78125 1.328125 C 4.625 1.097656 3.785156 0.671875 3.265625 0.046875 C 2.742188 -0.578125 2.570312 -1.398438 2.75 -2.421875 L 3.703125 -8.015625 Z M 2.578125 -8.21875 "/></g></g></g><g fill="#462054" fill-opacity="1"><g transform="translate(170.315646, 329.144734)"><g><path d="M 1.5625 -1.9375 C 1.625 -2.582031 1.875 -3.066406 2.3125 -3.390625 C 2.75 -3.722656 3.3125 -3.851562 4 -3.78125 C 4.6875 -3.707031 5.207031 -3.46875 5.5625 -3.0625 C 5.914062 -2.65625 6.0625 -2.128906 6 -1.484375 C 5.925781 -0.828125 5.671875 -0.332031 5.234375 0 C 4.804688 0.320312 4.25 0.445312 3.5625 0.375 C 2.882812 0.300781 2.363281 0.0546875 2 -0.359375 C 1.632812 -0.773438 1.488281 -1.300781 1.5625 -1.9375 Z M 1.5625 -1.9375 "/></g></g></g><g fill="#462054" fill-opacity="1"><g transform="translate(177.747278, 329.909543)"><g/></g></g><g fill="#462054" fill-opacity="1"><g transform="translate(185.393774, 330.38375)"><g><path d="M 1.109375 -0.03125 C 0.898438 -0.800781 0.851562 -1.484375 0.96875 -2.078125 C 1.09375 -2.679688 1.332031 -3.234375 1.6875 -3.734375 C 2.039062 -4.234375 2.46875 -4.695312 2.96875 -5.125 C 3.46875 -5.5625 3.988281 -5.992188 4.53125 -6.421875 C 5.082031 -6.859375 5.601562 -7.304688 6.09375 -7.765625 C 6.582031 -8.222656 7 -8.71875 7.34375 -9.25 C 7.695312 -9.78125 7.925781 -10.382812 8.03125 -11.0625 C 8.132812 -11.71875 8.117188 -12.253906 7.984375 -12.671875 C 7.847656 -13.085938 7.632812 -13.394531 7.34375 -13.59375 C 7.0625 -13.789062 6.753906 -13.867188 6.421875 -13.828125 C 5.960938 -13.796875 5.625 -13.648438 5.40625 -13.390625 C 5.195312 -13.140625 5.054688 -12.828125 4.984375 -12.453125 C 4.910156 -12.085938 4.851562 -11.703125 4.8125 -11.296875 C 4.769531 -10.898438 4.6875 -10.523438 4.5625 -10.171875 C 4.425781 -9.796875 4.210938 -9.503906 3.921875 -9.296875 C 3.640625 -9.085938 3.257812 -8.992188 2.78125 -9.015625 C 2.195312 -9.054688 1.738281 -9.273438 1.40625 -9.671875 C 1.070312 -10.066406 0.910156 -10.5625 0.921875 -11.15625 C 0.941406 -11.832031 1.179688 -12.46875 1.640625 -13.0625 C 2.109375 -13.65625 2.769531 -14.132812 3.625 -14.5 C 4.476562 -14.863281 5.476562 -15.054688 6.625 -15.078125 C 8.488281 -15.140625 9.945312 -14.785156 11 -14.015625 C 12.0625 -13.242188 12.570312 -12.132812 12.53125 -10.6875 C 12.519531 -9.945312 12.335938 -9.28125 11.984375 -8.6875 C 11.628906 -8.101562 11.171875 -7.582031 10.609375 -7.125 C 10.046875 -6.664062 9.4375 -6.25 8.78125 -5.875 C 8.132812 -5.507812 7.492188 -5.164062 6.859375 -4.84375 C 6.222656 -4.53125 5.660156 -4.234375 5.171875 -3.953125 C 4.679688 -3.671875 4.316406 -3.378906 4.078125 -3.078125 L 9 -3.375 C 9.300781 -3.40625 9.535156 -3.507812 9.703125 -3.6875 C 9.867188 -3.875 10 -4.054688 10.09375 -4.234375 C 10.164062 -4.410156 10.285156 -4.535156 10.453125 -4.609375 C 10.628906 -4.691406 10.804688 -4.710938 10.984375 -4.671875 L 12.390625 -4.453125 C 12.578125 -4.441406 12.707031 -4.367188 12.78125 -4.234375 C 12.863281 -4.109375 12.898438 -3.945312 12.890625 -3.75 L 12.359375 -1 C 12.316406 -0.820312 12.226562 -0.671875 12.09375 -0.546875 C 11.96875 -0.429688 11.8125 -0.367188 11.625 -0.359375 C 11.03125 -0.359375 10.390625 -0.34375 9.703125 -0.3125 C 9.015625 -0.289062 8.34375 -0.269531 7.6875 -0.25 Z M 1.109375 -0.03125 "/></g></g></g><g fill="#462054" fill-opacity="1"><g transform="translate(199.526065, 329.917656)"><g><path d="M 7.109375 -0.734375 C 5.648438 -0.523438 4.363281 -0.660156 3.25 -1.140625 C 2.132812 -1.617188 1.238281 -2.378906 0.5625 -3.421875 C -0.113281 -4.460938 -0.5625 -5.71875 -0.78125 -7.1875 C -0.988281 -8.675781 -0.910156 -10.019531 -0.546875 -11.21875 C -0.191406 -12.414062 0.445312 -13.398438 1.375 -14.171875 C 2.3125 -14.941406 3.507812 -15.429688 4.96875 -15.640625 C 6.445312 -15.847656 7.738281 -15.710938 8.84375 -15.234375 C 9.945312 -14.753906 10.84375 -13.992188 11.53125 -12.953125 C 12.21875 -11.910156 12.664062 -10.644531 12.875 -9.15625 C 13.09375 -7.6875 13.015625 -6.351562 12.640625 -5.15625 C 12.273438 -3.957031 11.628906 -2.972656 10.703125 -2.203125 C 9.785156 -1.429688 8.585938 -0.941406 7.109375 -0.734375 Z M 5.140625 -14.421875 C 4.609375 -14.347656 4.238281 -14.046875 4.03125 -13.515625 C 3.832031 -12.984375 3.753906 -12.242188 3.796875 -11.296875 C 3.835938 -10.359375 3.953125 -9.222656 4.140625 -7.890625 C 4.335938 -6.554688 4.546875 -5.429688 4.765625 -4.515625 C 4.992188 -3.609375 5.273438 -2.9375 5.609375 -2.5 C 5.953125 -2.0625 6.390625 -1.878906 6.921875 -1.953125 C 7.460938 -2.023438 7.832031 -2.320312 8.03125 -2.84375 C 8.238281 -3.363281 8.320312 -4.09375 8.28125 -5.03125 C 8.25 -5.96875 8.132812 -7.101562 7.9375 -8.4375 C 7.75 -9.769531 7.539062 -10.894531 7.3125 -11.8125 C 7.082031 -12.726562 6.796875 -13.410156 6.453125 -13.859375 C 6.117188 -14.304688 5.679688 -14.492188 5.140625 -14.421875 Z M 5.140625 -14.421875 "/></g></g></g><g fill="#462054" fill-opacity="1"><g transform="translate(214.669509, 327.677743)"><g><path d="M 1.078125 -0.28125 C 0.703125 -0.976562 0.503906 -1.628906 0.484375 -2.234375 C 0.472656 -2.847656 0.585938 -3.4375 0.828125 -4 C 1.066406 -4.570312 1.382812 -5.125 1.78125 -5.65625 C 2.175781 -6.1875 2.59375 -6.71875 3.03125 -7.25 C 3.46875 -7.789062 3.875 -8.335938 4.25 -8.890625 C 4.632812 -9.441406 4.9375 -10.015625 5.15625 -10.609375 C 5.382812 -11.210938 5.476562 -11.851562 5.4375 -12.53125 C 5.394531 -13.195312 5.257812 -13.71875 5.03125 -14.09375 C 4.800781 -14.476562 4.523438 -14.734375 4.203125 -14.859375 C 3.890625 -14.992188 3.578125 -15.003906 3.265625 -14.890625 C 2.804688 -14.753906 2.503906 -14.535156 2.359375 -14.234375 C 2.210938 -13.941406 2.144531 -13.609375 2.15625 -13.234375 C 2.164062 -12.859375 2.191406 -12.46875 2.234375 -12.0625 C 2.285156 -11.664062 2.285156 -11.285156 2.234375 -10.921875 C 2.191406 -10.523438 2.050781 -10.191406 1.8125 -9.921875 C 1.582031 -9.660156 1.234375 -9.488281 0.765625 -9.40625 C 0.179688 -9.3125 -0.316406 -9.421875 -0.734375 -9.734375 C -1.148438 -10.046875 -1.414062 -10.488281 -1.53125 -11.0625 C -1.664062 -11.726562 -1.566406 -12.40625 -1.234375 -13.09375 C -0.910156 -13.78125 -0.375 -14.394531 0.375 -14.9375 C 1.125 -15.488281 2.0625 -15.898438 3.1875 -16.171875 C 4.988281 -16.628906 6.488281 -16.597656 7.6875 -16.078125 C 8.882812 -15.554688 9.625 -14.582031 9.90625 -13.15625 C 10.050781 -12.425781 10.015625 -11.734375 9.796875 -11.078125 C 9.578125 -10.429688 9.242188 -9.820312 8.796875 -9.25 C 8.347656 -8.6875 7.847656 -8.15625 7.296875 -7.65625 C 6.742188 -7.15625 6.191406 -6.679688 5.640625 -6.234375 C 5.085938 -5.785156 4.601562 -5.367188 4.1875 -4.984375 C 3.769531 -4.597656 3.476562 -4.234375 3.3125 -3.890625 L 8.046875 -5.25 C 8.335938 -5.351562 8.546875 -5.507812 8.671875 -5.71875 C 8.796875 -5.9375 8.878906 -6.140625 8.921875 -6.328125 C 8.960938 -6.515625 9.054688 -6.660156 9.203125 -6.765625 C 9.347656 -6.878906 9.507812 -6.941406 9.6875 -6.953125 L 11.109375 -7.046875 C 11.296875 -7.066406 11.441406 -7.023438 11.546875 -6.921875 C 11.660156 -6.816406 11.734375 -6.664062 11.765625 -6.46875 L 11.84375 -3.671875 C 11.84375 -3.484375 11.789062 -3.316406 11.6875 -3.171875 C 11.582031 -3.023438 11.4375 -2.929688 11.25 -2.890625 C 10.675781 -2.742188 10.054688 -2.582031 9.390625 -2.40625 C 8.722656 -2.238281 8.070312 -2.078125 7.4375 -1.921875 Z M 1.078125 -0.28125 "/></g></g></g><g fill="#462054" fill-opacity="1"><g transform="translate(228.357277, 324.144934)"><g><path d="M -0.8125 -4.421875 C -0.925781 -4.535156 -1 -4.671875 -1.03125 -4.828125 C -1.070312 -4.992188 -1.070312 -5.15625 -1.03125 -5.3125 L 2.953125 -16.140625 C 3.109375 -16.515625 3.378906 -16.773438 3.765625 -16.921875 L 4.71875 -17.28125 L 5.6875 -17.65625 C 5.863281 -17.71875 6.019531 -17.710938 6.15625 -17.640625 C 6.300781 -17.578125 6.410156 -17.457031 6.484375 -17.28125 L 9.578125 -9.109375 L 10.75 -9.5625 C 10.90625 -9.625 11.054688 -9.617188 11.203125 -9.546875 C 11.347656 -9.484375 11.453125 -9.363281 11.515625 -9.1875 C 11.585938 -9.007812 11.585938 -8.847656 11.515625 -8.703125 C 11.453125 -8.566406 11.34375 -8.46875 11.1875 -8.40625 L 10.015625 -7.953125 L 10.671875 -6.1875 C 10.734375 -6.019531 10.835938 -5.878906 10.984375 -5.765625 C 11.140625 -5.660156 11.304688 -5.578125 11.484375 -5.515625 C 11.566406 -5.523438 11.632812 -5.519531 11.6875 -5.5 C 11.75 -5.476562 11.820312 -5.460938 11.90625 -5.453125 C 12.125 -5.398438 12.238281 -5.25 12.25 -5 C 12.269531 -4.757812 12.175781 -4.601562 11.96875 -4.53125 L 6.40625 -2.421875 C 6.207031 -2.347656 6.03125 -2.40625 5.875 -2.59375 C 5.726562 -2.789062 5.71875 -2.976562 5.84375 -3.15625 C 5.882812 -3.21875 5.929688 -3.28125 5.984375 -3.34375 C 6.046875 -3.40625 6.097656 -3.460938 6.140625 -3.515625 C 6.429688 -3.816406 6.5 -4.164062 6.34375 -4.5625 L 5.6875 -6.328125 L 0.140625 -4.234375 C -0.203125 -4.097656 -0.507812 -4.160156 -0.78125 -4.421875 Z M 0.5625 -5.703125 L 5.25 -7.484375 L 3.171875 -12.96875 Z M 0.5625 -5.703125 "/></g></g></g></svg>