<?xml version="1.0" standalone="no"?>
<!DOCTYPE svg PUBLIC "-//W3C//DTD SVG 20010904//EN"
 "http://www.w3.org/TR/2001/REC-SVG-20010904/DTD/svg10.dtd">
<svg version="1.0" xmlns="http://www.w3.org/2000/svg"
 width="500.000000pt" height="500.000000pt" viewBox="0 0 500.000000 500.000000"
 preserveAspectRatio="xMidYMid meet">
<metadata>
Created by potrace 1.14, written by Peter Selinger 2001-2017
</metadata>
<g transform="translate(0.000000,500.000000) scale(0.100000,-0.100000)"
fill="#000000" stroke="none">
<path d="M925 3309 c-268 -20 -459 -137 -561 -344 -62 -125 -78 -213 -72 -390
4 -120 9 -152 34 -225 52 -155 158 -281 293 -350 176 -88 435 -110 651 -55
226 57 394 224 454 450 24 87 31 246 17 345 -58 396 -355 603 -816 569z m144
-140 c103 -59 179 -255 211 -547 16 -145 9 -361 -14 -427 -58 -163 -218 -215
-337 -108 -106 96 -182 389 -183 708 -1 180 20 269 81 335 61 69 162 85 242
39z"/>
<path d="M2495 3309 c-298 -22 -505 -166 -601 -419 -27 -72 -28 -82 -28 -250
0 -163 2 -180 27 -255 59 -176 172 -312 319 -385 128 -62 217 -82 383 -82 167
-1 266 17 375 68 140 66 227 162 273 302 46 140 34 252 -27 252 -56 0 -76 -25
-96 -125 -26 -131 -101 -239 -203 -293 -48 -25 -61 -27 -162 -27 -105 0 -114
2 -177 33 -153 75 -230 236 -259 537 -13 142 -5 274 22 362 41 131 145 193
277 163 102 -23 142 -89 142 -236 0 -108 14 -151 64 -199 48 -47 99 -65 183
-65 148 0 228 76 228 215 -1 266 -310 435 -740 404z"/>
<path d="M3431 3273 c-21 -18 -52 -122 -66 -225 -6 -39 -4 -49 14 -67 41 -41
85 -20 145 69 59 89 116 120 223 120 l73 0 0 -530 c0 -355 -4 -537 -11 -553
-6 -13 -28 -34 -49 -47 -44 -27 -54 -50 -33 -79 14 -20 22 -21 318 -21 296 0
304 1 318 21 15 20 12 59 -3 59 -5 0 -25 15 -44 34 l-36 33 0 542 0 541 63 0
c94 0 136 -16 187 -69 25 -26 57 -66 72 -89 41 -63 96 -68 124 -13 19 37 -23
238 -57 272 -18 18 -38 19 -618 19 -556 0 -600 -1 -620 -17z"/>
</g>
</svg>
