<?xml version="1.0" standalone="no"?>
<!DOCTYPE svg PUBLIC "-//W3C//DTD SVG 20010904//EN"
 "http://www.w3.org/TR/2001/REC-SVG-20010904/DTD/svg10.dtd">
<svg version="1.0" xmlns="http://www.w3.org/2000/svg"
 width="500.000000pt" height="500.000000pt" viewBox="0 0 500.000000 500.000000"
 preserveAspectRatio="xMidYMid meet">
<metadata>
Created by potrace 1.14, written by Peter Selinger 2001-2017
</metadata>
<g transform="translate(0.000000,500.000000) scale(0.100000,-0.100000)"
fill="#000000" stroke="none">
<path d="M1440 3956 c-331 -70 -595 -288 -750 -619 -45 -95 -84 -223 -107
-352 -20 -110 -23 -423 -5 -535 66 -401 240 -663 537 -806 252 -122 600 -133
852 -28 l62 26 63 -25 c267 -107 609 -96 853 26 97 48 167 101 243 182 60 64
132 167 132 188 0 7 -71 57 -80 57 -4 0 -17 -19 -30 -42 -106 -190 -305 -327
-534 -367 -134 -24 -391 -8 -500 31 l-38 14 39 26 c104 69 239 232 313 378
182 362 200 902 40 1272 -60 139 -124 234 -227 336 -106 105 -108 93 19 129
89 24 354 24 453 0 126 -32 228 -89 320 -180 45 -45 97 -106 115 -134 17 -29
35 -53 38 -53 4 0 24 15 45 33 l38 32 -41 63 c-46 73 -161 189 -214 217 -20
11 -36 23 -36 26 0 9 573 11 594 3 14 -6 16 -123 16 -1145 l0 -1139 50 0 50 0
0 1145 0 1146 382 -1 c362 -2 383 -1 389 17 4 10 8 28 8 41 l1 22 -852 0
c-741 0 -863 2 -937 16 -65 12 -122 15 -236 11 -158 -5 -253 -24 -358 -71
l-52 -23 -53 24 c-119 52 -187 65 -367 69 -118 2 -190 -1 -235 -10z m458 -115
c45 -13 82 -27 82 -31 0 -4 -17 -19 -39 -34 -56 -39 -181 -171 -228 -241 -91
-136 -162 -312 -200 -500 -14 -72 -18 -137 -18 -325 1 -206 3 -248 23 -339 66
-303 169 -474 395 -662 5 -3 -34 -17 -85 -30 -80 -21 -116 -24 -258 -24 -126
1 -180 5 -230 18 -170 47 -267 98 -373 198 -212 197 -310 500 -294 908 11 278
70 478 202 681 135 209 369 363 606 399 112 17 323 8 417 -18z m258 -128 c77
-57 103 -83 159 -159 95 -127 155 -268 192 -449 25 -127 25 -480 0 -610 -37
-187 -92 -328 -180 -462 -54 -80 -182 -207 -251 -248 l-46 -27 -49 32 c-69 44
-181 165 -229 247 -108 185 -153 383 -154 673 -1 368 99 664 296 878 59 63
182 162 202 162 6 0 33 -16 60 -37z"/>
<path d="M1108 1362 c9 -10 19 -17 21 -16 6 5 -20 34 -30 34 -5 0 -1 -8 9 -18z"/>
<path d="M1465 1367 c18 -14 18 -18 6 -39 -13 -22 -13 -22 5 -5 20 19 12 47
-17 55 -8 2 -5 -3 6 -11z"/>
<path d="M1669 1363 c-13 -17 -13 -17 6 -3 11 8 22 16 24 17 2 2 0 3 -6 3 -6
0 -17 -8 -24 -17z"/>
<path d="M1910 1376 c0 -2 8 -10 18 -17 15 -13 16 -12 3 4 -13 16 -21 21 -21
13z"/>
<path d="M2037 1373 c-4 -3 -6 -34 -5 -67 l1 -61 7 65 c7 70 7 73 -3 63z"/>
<path d="M2150 1359 c-7 -11 -9 -23 -6 -27 3 -3 6 0 6 7 0 7 5 9 10 6 6 -3 10
3 10 14 0 27 -6 27 -20 0z"/>
<path d="M2260 1346 c0 -20 2 -36 4 -36 8 0 12 61 4 66 -4 3 -8 -11 -8 -30z"/>
<path d="M2388 1373 c-2 -5 -1 -24 3 -43 l6 -35 2 43 c1 39 -3 52 -11 35z"/>
<path d="M2505 1370 c-3 -6 1 -7 9 -4 18 7 21 14 7 14 -6 0 -13 -4 -16 -10z"/>
<path d="M2560 1376 c0 -2 7 -7 16 -10 8 -3 12 -2 9 4 -6 10 -25 14 -25 6z"/>
<path d="M2690 1370 c0 -5 5 -10 11 -10 5 0 7 5 4 10 -3 6 -8 10 -11 10 -2 0
-4 -4 -4 -10z"/>
<path d="M3123 1310 c0 -41 2 -58 4 -37 2 20 2 54 0 75 -2 20 -4 3 -4 -38z"/>
<path d="M1212 1345 c0 -16 2 -22 5 -12 2 9 2 23 0 30 -3 6 -5 -1 -5 -18z"/>
<path d="M1313 1320 c0 -30 2 -43 4 -27 2 15 2 39 0 55 -2 15 -4 2 -4 -28z"/>
<path d="M3001 1344 c0 -11 3 -14 6 -6 3 7 2 16 -1 19 -3 4 -6 -2 -5 -13z"/>
<path d="M1652 1310 c0 -19 2 -27 5 -17 2 9 2 25 0 35 -3 9 -5 1 -5 -18z"/>
<path d="M1942 1315 c0 -16 2 -22 5 -12 2 9 2 23 0 30 -3 6 -5 -1 -5 -18z"/>
<path d="M3900 1314 c0 -14 -5 -35 -11 -47 -10 -21 -10 -21 5 -3 15 18 23 76
11 76 -3 0 -5 -12 -5 -26z"/>
<path d="M1012 1310 c0 -14 2 -19 5 -12 2 6 2 18 0 25 -3 6 -5 1 -5 -13z"/>
<path d="M1131 1314 c0 -11 3 -14 6 -6 3 7 2 16 -1 19 -3 4 -6 -2 -5 -13z"/>
<path d="M2481 1310 c-2 -41 25 -70 62 -69 l32 2 -30 4 c-38 6 -45 13 -55 55
-7 28 -8 29 -9 8z"/>
<path d="M1400 1316 c0 -2 9 -6 20 -9 11 -3 20 -1 20 4 0 5 -9 9 -20 9 -11 0
-20 -2 -20 -4z"/>
<path d="M2730 1316 c0 -2 8 -10 18 -17 15 -13 16 -12 3 4 -13 16 -21 21 -21
13z"/>
<path d="M3003 1280 c0 -25 2 -35 4 -22 2 12 2 32 0 45 -2 12 -4 2 -4 -23z"/>
<path d="M3188 1313 c6 -2 18 -2 25 0 6 3 1 5 -13 5 -14 0 -19 -2 -12 -5z"/>
<path d="M3310 1316 c0 -2 7 -6 15 -10 8 -3 15 -1 15 4 0 6 -7 10 -15 10 -8 0
-15 -2 -15 -4z"/>
<path d="M3498 1313 c6 -2 18 -2 25 0 6 3 1 5 -13 5 -14 0 -19 -2 -12 -5z"/>
<path d="M3626 1294 c-4 -9 -4 -19 -1 -22 2 -3 7 3 11 12 4 9 4 19 1 22 -2 3
-7 -3 -11 -12z"/>
<path d="M3663 1283 c9 -2 25 -2 35 0 9 3 1 5 -18 5 -19 0 -27 -2 -17 -5z"/>
<path d="M2771 1263 c7 -12 15 -20 18 -17 3 2 -3 12 -13 22 -17 16 -18 16 -5
-5z"/>
<path d="M1029 1258 c8 -11 25 -17 45 -17 l31 2 -30 4 c-16 3 -37 10 -45 16
-13 10 -13 10 -1 -5z"/>
<path d="M1736 1255 c-11 -8 -15 -15 -9 -15 6 0 16 7 23 15 16 19 11 19 -14 0z"/>
<path d="M1688 1243 c7 -3 16 -2 19 1 4 3 -2 6 -13 5 -11 0 -14 -3 -6 -6z"/>
<path d="M1873 1243 c9 -2 23 -2 30 0 6 3 -1 5 -18 5 -16 0 -22 -2 -12 -5z"/>
<path d="M3498 1243 c6 -2 18 -2 25 0 6 3 1 5 -13 5 -14 0 -19 -2 -12 -5z"/>
<path d="M3833 1243 c9 -2 23 -2 30 0 6 3 -1 5 -18 5 -16 0 -22 -2 -12 -5z"/>
</g>
</svg>
